<?xml version="1.0" encoding="UTF-8"?>
<svg version="1.1" xmlns="http://www.w3.org/2000/svg" width="640" height="640">
<path d="M0 0 C1.4043631 -0.00101212 1.4043631 -0.00101212 2.83709717 -0.00204468 C17.36133858 0.01456279 31.49911644 0.59456438 45.8125 3.25 C46.81893555 3.43224121 47.82537109 3.61448242 48.86230469 3.80224609 C61.45274012 6.13013476 73.7333334 8.96897785 85.8125 13.25 C86.6880957 13.55389648 87.56369141 13.85779297 88.46582031 14.17089844 C122.48832179 26.06438203 153.35954705 43.65855115 179.8125 68.25 C181.08003302 69.33719295 182.35080631 70.42062105 183.625 71.5 C193.25695369 79.92308501 201.96864208 89.14648765 209.8125 99.25 C210.8068216 100.4925638 211.80164738 101.73472425 212.796875 102.9765625 C246.58026364 145.59395114 268.75812134 200.90677127 269.015625 255.69921875 C269.02132507 256.67373489 269.02702515 257.64825104 269.03289795 258.65229797 C269.04228908 260.7086989 269.0488583 262.76511448 269.05273438 264.8215332 C269.0623341 267.88456509 269.0933705 270.9468936 269.125 274.00976562 C269.31758645 309.80724574 260.91297397 344.46247933 246.8125 377.25 C246.50618652 377.96720215 246.19987305 378.6844043 245.88427734 379.42333984 C237.86553565 397.95178837 227.30227631 415.4024439 214.8125 431.25 C214.03132813 432.24257813 213.25015625 433.23515625 212.4453125 434.2578125 C208.13617422 439.61068669 203.63235035 444.76516828 199 449.83984375 C196.87983383 452.17581254 194.8155269 454.55326875 192.75 456.9375 C188.09726701 462.17530719 183.25338579 467.3003023 176.8125 470.25 C176.8125 470.91 176.8125 471.57 176.8125 472.25 C174.85146646 473.98735316 172.88725839 475.59490377 170.8125 477.1875 C170.18166504 477.67549072 169.55083008 478.16348145 168.90087891 478.66625977 C143.90138493 497.80755332 116.74242582 513.28981438 86.8125 523.25 C86.02584961 523.51264648 85.23919922 523.77529297 84.42871094 524.04589844 C65.7496417 530.18124842 46.40000707 534.43673239 26.8125 536.25 C25.64589844 536.36085938 24.47929687 536.47171875 23.27734375 536.5859375 C-43.69238649 541.97849467 -111.73963319 522.25016205 -164.46484375 480.41015625 C-167.53755159 477.97226897 -170.69578366 475.67505242 -173.89453125 473.40625 C-174.32121094 473.0246875 -174.74789062 472.643125 -175.1875 472.25 C-175.1875 471.59 -175.1875 470.93 -175.1875 470.25 C-175.71730469 470.03601563 -176.24710937 469.82203125 -176.79296875 469.6015625 C-180.10794058 467.7304691 -182.74089027 465.21362751 -185.5 462.625 C-186.08322021 462.08085449 -186.66644043 461.53670898 -187.26733398 460.97607422 C-191.53814258 456.95038535 -195.43206279 452.7597005 -199.1875 448.25 C-200.48880859 446.78046875 -200.48880859 446.78046875 -201.81640625 445.28125 C-214.3298512 431.12447815 -224.86425291 415.96676514 -233.98242188 399.42529297 C-235.0659445 397.46942048 -236.17559592 395.53202347 -237.296875 393.59765625 C-258.44559308 355.99523551 -267.91169145 311.64446343 -267.5625 268.8125 C-267.55784729 267.7871817 -267.55319458 266.7618634 -267.54840088 265.70547485 C-267.46875483 250.70678178 -267.13088849 236.00396622 -264.1875 221.25 C-263.88948486 219.71786865 -263.88948486 219.71786865 -263.58544922 218.15478516 C-259.09089067 195.675259 -252.28905267 173.85295847 -242.1875 153.25 C-241.74921875 152.3542627 -241.3109375 151.45852539 -240.859375 150.53564453 C-231.76663336 132.14719826 -221.14786774 115.15769511 -208.1875 99.25 C-207.7450293 98.70456543 -207.30255859 98.15913086 -206.84667969 97.59716797 C-162.01098542 42.76112329 -96.53998597 8.32060771 -26.24609375 0.66015625 C-17.52131465 -0.06729603 -8.74906983 0.00566762 0 0 Z " fill="#F6921C" transform="translate(319.1875,66.75)"/>
<path d="M0 0 C2.33136264 1.30148614 4.67171576 2.58592573 7.01318359 3.86914062 C10.47007666 5.76444175 13.92461907 7.66388116 17.37646484 9.56835938 C22.58558356 12.44159294 27.80600848 15.29364313 33.03271484 18.13476562 C29.45946929 26.41532068 19.58004152 30.19826382 11.97021484 34.07226562 C10.95016357 34.5965918 9.9301123 35.12091797 8.87915039 35.66113281 C1.01690154 39.68081707 -6.86302364 43.62183786 -14.96728516 47.13476562 C-15.69915039 47.45396973 -16.43101562 47.77317383 -17.18505859 48.10205078 C-33.92349524 55.31856027 -51.05503664 59.96816617 -68.84228516 63.82226562 C-69.70047852 64.01264404 -70.55867187 64.20302246 -71.44287109 64.39916992 C-74.60832662 65.05449581 -77.77768357 65.60774453 -80.96728516 66.13476562 C-81.7334314 66.2621814 -82.49957764 66.38959717 -83.28894043 66.52087402 C-96.05949872 68.56846128 -108.70757616 69.3968293 -121.62353516 69.47070312 C-122.34714359 69.47509462 -123.07075203 69.47948612 -123.81628799 69.4840107 C-130.55285527 69.51911599 -137.28927456 69.51765427 -144.02587891 69.49511719 C-171.85100712 68.52056587 -171.85100712 68.52056587 -196.15087891 80.32617188 C-196.75029297 80.92300781 -197.34970703 81.51984375 -197.96728516 82.13476562 C-198.51513672 82.68003906 -199.06298828 83.2253125 -199.62744141 83.78710938 C-216.19210272 101.79217602 -223.84651054 130.81746733 -228.96728516 154.13476562 C-229.15709961 154.99166992 -229.34691406 155.84857422 -229.54248047 156.73144531 C-230.51205676 161.30230496 -231.21271221 165.56311064 -231.09228516 170.25976562 C-231.07423828 171.19046875 -231.05619141 172.12117187 -231.03759766 173.08007812 C-231.01439453 173.758125 -230.99119141 174.43617188 -230.96728516 175.13476562 C-230.48517578 174.62945312 -230.00306641 174.12414062 -229.50634766 173.60351562 C-228.87470703 172.95382812 -228.24306641 172.30414063 -227.59228516 171.63476562 C-226.96580078 170.98507812 -226.33931641 170.33539063 -225.69384766 169.66601562 C-223.96728516 168.13476562 -223.96728516 168.13476562 -221.96728516 168.13476562 C-221.96728516 167.47476563 -221.96728516 166.81476563 -221.96728516 166.13476562 C-220.63916016 164.83007812 -220.63916016 164.83007812 -218.71728516 163.25976562 C-214.20163222 159.4481661 -210.097856 155.30228836 -206.00537109 151.04736328 C-204.69532742 149.70702218 -203.33499749 148.41620688 -201.96728516 147.13476562 C-201.30728516 147.13476562 -200.64728516 147.13476562 -199.96728516 147.13476562 C-199.63728516 146.14476562 -199.30728516 145.15476562 -198.96728516 144.13476562 C-197.26025391 142.48632813 -197.26025391 142.48632813 -195.15478516 140.75976562 C-192.02255373 138.11114623 -189.39245219 135.4693703 -186.96728516 132.13476562 C-191.92131833 134.82840343 -196.28081583 137.77578705 -200.65478516 141.32226562 C-201.8714741 142.29196868 -203.08893709 143.26070124 -204.30712891 144.22851562 C-204.91411621 144.71191406 -205.52110352 145.1953125 -206.14648438 145.69335938 C-208.97892225 147.93561108 -211.83941956 150.13873658 -214.71728516 152.32226562 C-215.68150391 153.05832031 -216.64572266 153.794375 -217.63916016 154.55273438 C-219.96728516 156.13476562 -219.96728516 156.13476562 -221.96728516 156.13476562 C-221.58723112 140.5179998 -213.02253265 127.4915098 -202.65478516 116.32226562 C-182.13625625 97.28989185 -154.4814575 89.05307695 -126.94970703 90.0390625 C-122.92574506 90.23332273 -118.96219759 90.61929305 -114.96728516 91.13476562 C-122.03374516 110.00186573 -135.81176116 127.156356 -148.96728516 142.13476562 C-149.65822266 143.01003906 -150.34916016 143.8853125 -151.06103516 144.78710938 C-153.98355812 148.38636409 -157.400556 151.19007404 -160.96728516 154.13476562 C-162.376875 155.318125 -162.376875 155.318125 -163.81494141 156.52539062 C-178.68161955 168.69032007 -196.13671143 175.27019892 -214.52978516 180.19726562 C-219.76933793 181.65638159 -225.01757751 183.21691046 -228.96728516 187.13476562 C-236.55925546 201.34152193 -228.66525866 226.00432415 -224.43041992 240.36572266 C-210.73323477 285.03314667 -182.65415587 320.45274706 -141.34228516 342.44726562 C-135.02979549 345.73863444 -128.69164603 348.63275147 -121.98291016 351.04101562 C-117.69279924 352.5970144 -113.52121688 354.41287448 -109.33056641 356.21679688 C-107.07911938 357.25545712 -107.07911938 357.25545712 -104.96728516 357.13476562 C-105.23283203 356.33554687 -105.49837891 355.53632812 -105.77197266 354.71289062 C-106.30177734 353.06546875 -106.30177734 353.06546875 -106.84228516 351.38476562 C-107.19033203 350.31742188 -107.53837891 349.25007813 -107.89697266 348.15039062 C-110.39493667 339.46944956 -111.35563331 330.57912732 -111.34228516 321.57226562 C-111.34284912 320.55720947 -111.34341309 319.54215332 -111.34399414 318.49633789 C-111.08638792 298.9337497 -108.88747346 279.17549608 -106.42358398 259.77563477 C-104.78798191 247.07661032 -104.78798191 247.07661032 -109.58056641 235.68554688 C-110.94802001 234.10506387 -110.94802001 234.10506387 -112.53369141 232.69726562 C-114.25372454 230.82257011 -114.8318734 229.24137776 -115.59228516 226.82226562 C-115.83205078 226.08363281 -116.07181641 225.345 -116.31884766 224.58398438 C-118.1024612 217.84708261 -118.15052959 211.31283367 -118.15478516 204.38476562 C-118.16703125 203.3509375 -118.17927734 202.31710937 -118.19189453 201.25195312 C-118.20406447 194.8099966 -118.04825379 188.29735343 -115.96728516 182.13476562 C-115.30728516 181.80476562 -114.64728516 181.47476563 -113.96728516 181.13476562 C-112.85164227 188.93421501 -112.40578888 196.77740331 -111.90478516 204.63476562 C-111.81320547 206.04363393 -111.72141041 207.45248824 -111.62939453 208.86132812 C-111.40620674 212.28564956 -111.18593851 215.71015131 -110.96728516 219.13476562 C-109.97728516 219.46476563 -108.98728516 219.79476562 -107.96728516 220.13476562 C-107.92970093 218.94101318 -107.92970093 218.94101318 -107.89135742 217.72314453 C-107.7743153 214.06856394 -107.65208553 210.41417388 -107.52978516 206.75976562 C-107.49046875 205.50808594 -107.45115234 204.25640625 -107.41064453 202.96679688 C-106.83421766 186.02871511 -106.83421766 186.02871511 -105.96728516 182.13476562 C-105.30728516 181.80476562 -104.64728516 181.47476563 -103.96728516 181.13476562 C-102.94406512 189.28641857 -102.630715 197.39712897 -102.36181641 205.60351562 C-102.30574219 207.14265625 -102.30574219 207.14265625 -102.24853516 208.71289062 C-102.21824219 209.63489258 -102.18794922 210.55689453 -102.15673828 211.50683594 C-101.96819862 214.12209482 -101.53799992 216.57810213 -100.96728516 219.13476562 C-100.30728516 219.13476562 -99.64728516 219.13476562 -98.96728516 219.13476562 C-98.63728516 206.92476562 -98.30728516 194.71476562 -97.96728516 182.13476562 C-97.30728516 182.13476562 -96.64728516 182.13476562 -95.96728516 182.13476562 C-94.23939903 194.10129612 -93.04936229 206.09448288 -91.96728516 218.13476562 C-91.30728516 218.13476562 -90.64728516 218.13476562 -89.96728516 218.13476562 C-88.93735793 213.83546086 -88.75328812 209.60807578 -88.65087891 205.20898438 C-88.63009781 204.46139359 -88.60931671 203.7138028 -88.58790588 202.94355774 C-88.52284327 200.56988167 -88.46372806 198.19610076 -88.40478516 195.82226562 C-88.3615587 194.20702068 -88.31794312 192.59178609 -88.27392578 190.9765625 C-88.16720665 187.02940264 -88.06581897 183.08213796 -87.96728516 179.13476562 C-85.96728516 180.13476562 -85.96728516 180.13476562 -85.13110352 182.36523438 C-83.06879163 190.37380173 -82.48023679 197.88271023 -82.52978516 206.13476562 C-82.50980469 207.31554687 -82.48982422 208.49632812 -82.46923828 209.71289062 C-82.47449954 219.26734427 -83.69064074 228.74933671 -90.15478516 236.19726562 C-90.66396484 236.70386719 -91.17314453 237.21046875 -91.69775391 237.73242188 C-95.32153226 241.7353032 -94.10731554 248.12281105 -93.96728516 253.13476562 C-93.77336784 256.8092672 -93.47812894 260.46957977 -93.15478516 264.13476562 C-93.02547607 265.67076416 -93.02547607 265.67076416 -92.89355469 267.23779297 C-92.30804614 273.95642745 -91.56386259 280.64538473 -90.75244141 287.34008789 C-88.0426506 309.9329687 -86.00027167 335.55788941 -94.96728516 357.13476562 C-95.62728516 357.79476563 -96.28728516 358.45476562 -96.96728516 359.13476562 C-92.36907256 361.28930337 -87.7537504 361.95762799 -82.77978516 362.69726562 C-81.57999023 362.88579102 -81.57999023 362.88579102 -80.35595703 363.078125 C-74.57648653 363.96477469 -68.78952449 364.60322688 -62.96728516 365.13476562 C-63.17877197 364.19963135 -63.17877197 364.19963135 -63.39453125 363.24560547 C-64.04940163 360.33489167 -64.69584821 357.42236353 -65.34228516 354.50976562 C-65.56400391 353.53007813 -65.78572266 352.55039062 -66.01416016 351.54101562 C-69.2124902 337.05446188 -70.37062317 323.10857741 -70.34228516 308.32226562 C-70.34273834 307.39590302 -70.34319153 306.46954041 -70.34365845 305.5151062 C-70.31549982 285.65269124 -68.51648084 266.10335259 -66.22692871 246.39172363 C-65.54404027 240.45569898 -64.9178128 234.51323767 -64.27978516 228.57226562 C-64.09585205 226.88000854 -64.09585205 226.88000854 -63.90820312 225.15356445 C-63.010855 216.81554704 -62.2763959 208.51712168 -61.96728516 200.13476562 C-61.93473633 199.46026367 -61.9021875 198.78576172 -61.86865234 198.09082031 C-61.40323424 187.88453036 -62.01288337 179.8192182 -67.96728516 171.25976562 C-69.28994889 169.85443541 -70.64433181 168.47823553 -72.02978516 167.13476562 C-76.21331324 162.81628502 -77.74050202 158.0700475 -79.09228516 152.32226562 C-79.26115234 151.64873047 -79.43001953 150.97519531 -79.60400391 150.28125 C-81.98027273 140.50486841 -82.24061122 130.83850541 -82.27978516 120.82226562 C-82.28340057 120.11421783 -82.28701599 119.40617004 -82.29074097 118.67666626 C-82.31672506 106.00556769 -80.99055814 94.20458457 -76.96728516 82.13476562 C-76.30728516 82.13476562 -75.64728516 82.13476562 -74.96728516 82.13476562 C-74.55805899 88.39288469 -74.14913745 94.65102356 -73.74047852 100.90917969 C-73.60188706 103.03092973 -73.46321739 105.15267467 -73.32446289 107.27441406 C-73.18966725 109.33576546 -73.05501255 111.39712609 -72.92050171 113.45849609 C-72.78805128 115.48619838 -72.65509959 117.51386799 -72.52163696 119.54150391 C-72.22480151 124.07177274 -71.93604319 128.60189914 -71.68164062 133.13476562 C-71.63877426 133.88193848 -71.5959079 134.62911133 -71.55174255 135.39892578 C-71.44060664 137.36015774 -71.33447637 139.32167159 -71.22875977 141.28320312 C-71.14668971 144.07901753 -71.14668971 144.07901753 -69.96728516 146.13476562 C-67.94265261 146.78689854 -67.94265261 146.78689854 -65.96728516 147.13476562 C-65.92240967 146.05396729 -65.87753418 144.97316895 -65.83129883 143.85961914 C-64.95703068 123.17322985 -63.97720148 102.64321354 -60.96728516 82.13476562 C-60.63728516 82.13476562 -60.30728516 82.13476562 -59.96728516 82.13476562 C-57.64455768 95.24802803 -57.32264404 108.37253245 -56.86279297 121.65234375 C-56.75906375 124.57389143 -56.64482262 127.49489474 -56.52978516 130.41601562 C-56.50263428 131.30357544 -56.4754834 132.19113525 -56.44750977 133.10559082 C-56.26192201 137.74193065 -55.97270016 141.86221196 -53.96728516 146.13476562 C-52.97728516 146.46476563 -51.98728516 146.79476562 -50.96728516 147.13476562 C-50.05623519 144.40161574 -49.82492011 142.70644855 -49.77783203 139.88549805 C-49.7611145 139.02997849 -49.74439697 138.17445892 -49.72717285 137.29301453 C-49.71359741 136.36809708 -49.70002197 135.44317963 -49.68603516 134.49023438 C-49.65842102 133.04817375 -49.65842102 133.04817375 -49.63024902 131.57698059 C-49.57148804 128.49213816 -49.51879361 125.4072371 -49.46728516 122.32226562 C-49.03798105 97.09563421 -49.03798105 97.09563421 -47.96728516 85.13476562 C-47.30728516 85.13476562 -46.64728516 85.13476562 -45.96728516 85.13476562 C-44.21973654 99.95215683 -42.62872755 114.74760977 -41.70214844 129.64208984 C-41.33382293 135.09244075 -40.73024737 139.95560693 -38.96728516 145.13476562 C-37.97728516 144.80476562 -36.98728516 144.47476563 -35.96728516 144.13476562 C-33.80348891 130.48581351 -33.53912443 116.92991833 -33.34228516 103.13476562 C-33.30400699 100.89516875 -33.26494997 98.65558504 -33.22509766 96.41601562 C-33.13019448 90.98905116 -33.04485301 85.56200414 -32.96728516 80.13476562 C-32.30728516 80.13476562 -31.64728516 80.13476562 -30.96728516 80.13476562 C-21.97877906 105.54896815 -18.9735588 138.23061293 -30.36962891 163.39257812 C-32.76541275 167.504657 -35.75902974 170.97623665 -38.97900391 174.46679688 C-43.06689084 179.9521147 -43.32658293 185.99980459 -43.27978516 192.63476562 C-43.2755957 193.48949463 -43.27140625 194.34422363 -43.26708984 195.22485352 C-43.04727699 208.58082286 -41.41495151 221.86750816 -39.96728516 235.13476562 C-39.88289185 235.90884766 -39.79849854 236.68292969 -39.71154785 237.48046875 C-39.44559982 239.91735813 -39.17909962 242.35418677 -38.91259766 244.79101562 C-38.77930054 246.01329613 -38.77930054 246.01329613 -38.64331055 247.26026917 C-38.21076935 251.22304481 -37.773851 255.18519981 -37.32568359 259.14624023 C-35.62382963 274.34568961 -34.70902739 289.52617145 -34.65478516 304.82226562 C-34.65183441 305.56824005 -34.64888367 306.31421448 -34.64584351 307.08279419 C-34.62862962 326.46486247 -36.94989256 345.37821707 -41.96728516 364.13476562 C-34.90626427 364.42355994 -28.90863418 363.41587377 -22.09228516 361.63476562 C-20.24145427 361.16313517 -18.38991914 360.69425738 -16.53759766 360.22851562 C-15.73080566 360.01904297 -14.92401367 359.80957031 -14.09277344 359.59375 C-11.96728516 359.13476562 -11.96728516 359.13476562 -8.96728516 359.13476562 C-9.41773193 358.30259521 -9.86817871 357.4704248 -10.33227539 356.61303711 C-16.27332577 343.97422201 -16.597449 330.27071378 -16.40478516 316.57226562 C-16.39929657 315.70201752 -16.39380798 314.83176941 -16.38815308 313.93515015 C-16.30396844 300.59348974 -15.39503688 287.57701036 -13.30908203 274.38671875 C-12.09688058 266.40004289 -11.85835375 258.32490834 -11.71728516 250.25976562 C-11.69577393 249.55730713 -11.6742627 248.85484863 -11.65209961 248.13110352 C-11.61024932 241.49743735 -13.3448415 236.52434871 -17.96728516 231.69726562 C-25.37122545 222.12002942 -25.05589317 205.71867147 -23.96728516 194.13476562 C-23.29198452 189.72065763 -22.21912485 185.419336 -20.96728516 181.13476562 C-20.30728516 181.13476562 -19.64728516 181.13476562 -18.96728516 181.13476562 C-18.30728516 194.00476563 -17.64728516 206.87476563 -16.96728516 220.13476562 C-15.64728516 220.13476562 -14.32728516 220.13476562 -12.96728516 220.13476562 C-12.97888672 218.8534375 -12.99048828 217.57210937 -13.00244141 216.25195312 C-13.1606046 191.14293755 -13.1606046 191.14293755 -10.96728516 181.13476562 C-10.63728516 181.13476562 -10.30728516 181.13476562 -9.96728516 181.13476562 C-8.25900626 193.78929761 -7.44118066 206.37699985 -6.96728516 219.13476562 C-5.97728516 219.13476562 -4.98728516 219.13476562 -3.96728516 219.13476562 C-3.63728516 206.92476562 -3.30728516 194.71476562 -2.96728516 182.13476562 C-2.30728516 182.13476562 -1.64728516 182.13476562 -0.96728516 182.13476562 C0.02271484 194.34476563 1.01271484 206.55476563 2.03271484 219.13476562 C3.02271484 219.13476562 4.01271484 219.13476562 5.03271484 219.13476562 C5.36271484 205.93476563 5.69271484 192.73476563 6.03271484 179.13476562 C6.69271484 179.13476562 7.35271484 179.13476562 8.03271484 179.13476562 C12.93027394 197.43501992 15.59324614 216.92580929 6.03271484 234.13476562 C5.37271484 234.13476562 4.71271484 234.13476562 4.03271484 234.13476562 C4.03271484 234.79476563 4.03271484 235.45476562 4.03271484 236.13476562 C3.37271484 236.13476562 2.71271484 236.13476562 2.03271484 236.13476562 C-1.89078458 248.47943454 1.32766023 263.74932611 2.74865723 276.35736084 C9.39534112 335.49628075 9.39534112 335.49628075 0.03271484 356.13476562 C19.33353636 347.86298497 37.39639234 337.9717567 54.03271484 325.13476562 C55.48484375 324.02294922 55.48484375 324.02294922 56.96630859 322.88867188 C70.35947706 312.29465618 81.13390885 299.99176353 91.03271484 286.13476562 C91.46068359 285.54083008 91.88865234 284.94689453 92.32958984 284.33496094 C114.21091147 253.555472 121.37106959 214.84993869 122.59521484 177.88476562 C122.63839844 176.65113281 122.68158203 175.4175 122.72607422 174.14648438 C122.8308589 171.14265695 122.93303024 168.13876588 123.03271484 165.13476562 C121.71271484 164.80476562 120.39271484 164.47476563 119.03271484 164.13476562 C120.02271484 164.13476562 121.01271484 164.13476562 122.03271484 164.13476562 C120.91091854 162.34109132 119.78517001 160.54988833 118.65771484 158.75976562 C118.03123047 157.76203125 117.40474609 156.76429688 116.75927734 155.73632812 C115.14001772 153.10996373 115.14001772 153.10996373 113.03271484 151.13476562 C113.40525391 151.74964844 113.77779297 152.36453125 114.16162109 152.99804688 C114.63470703 153.80628906 115.10779297 154.61453125 115.59521484 155.44726562 C116.07087891 156.24777344 116.54654297 157.04828125 117.03662109 157.87304688 C118.03271484 160.13476563 118.03271484 160.13476563 117.03271484 163.13476562 C102.60990064 152.10061262 102.60990064 152.10061262 100.03271484 144.13476562 C99.37271484 144.13476562 98.71271484 144.13476562 98.03271484 144.13476562 C94.89883814 136.42830824 93.12273941 129.04498572 91.97021484 120.82226562 C90.69532171 111.61910919 90.69532171 111.61910919 87.03271484 103.13476562 C87.03271484 102.47476563 87.03271484 101.81476563 87.03271484 101.13476562 C95.86155125 100.47729908 104.7856854 105.95313184 111.47021484 111.44726562 C118.77989698 118.47520412 123.16245935 126.47465841 126.03271484 136.13476562 C126.3246875 137.05708984 126.3246875 137.05708984 126.62255859 137.99804688 C127.22871397 141.15582774 127.20407263 144.23496604 127.22021484 147.44726562 C127.23439453 148.72214844 127.24857422 149.99703125 127.26318359 151.31054688 C127.02272559 155.30051946 126.26813194 158.36015132 125.03271484 162.13476562 C127.67271484 161.80476562 130.31271484 161.47476563 133.03271484 161.13476562 C132.70271484 160.18601562 132.37271484 159.23726562 132.03271484 158.25976562 C129.20970951 147.66296203 132.08584063 140.83404455 137.08740234 131.47851562 C139.98136156 126.50416002 139.98136156 126.50416002 143.34521484 125.32226562 C146.24761791 124.2451894 146.24761791 124.2451894 148.53271484 121.50976562 C151.03271484 119.13476562 151.03271484 119.13476562 153.84521484 118.82226562 C154.92802734 118.97695313 154.92802734 118.97695313 156.03271484 119.13476562 C156.03271484 118.47476563 156.03271484 117.81476563 156.03271484 117.13476562 C156.69271484 117.13476562 157.35271484 117.13476562 158.03271484 117.13476562 C158.34208984 115.99007812 158.34208984 115.99007812 158.65771484 114.82226562 C160.03271484 112.13476562 160.03271484 112.13476562 162.82177734 110.85351562 C167.18836975 108.51616689 169.18351153 105.26584301 171.95068359 101.25390625 C172.93947148 99.85283829 173.98208538 98.49007763 175.03271484 97.13476562 C175.69271484 97.13476562 176.35271484 97.13476562 177.03271484 97.13476562 C181.16199367 106.68012179 181.16199367 106.68012179 181.59521484 111.13476562 C181.73958984 112.12476563 181.88396484 113.11476563 182.03271484 114.13476562 C183.02271484 114.79476562 184.01271484 115.45476562 185.03271484 116.13476562 C184.88833984 117.43414062 184.74396484 118.73351562 184.59521484 120.07226562 C184.50626953 120.88953125 184.41732422 121.70679688 184.32568359 122.54882812 C184.1348923 124.23287932 183.92986956 125.91539853 183.70849609 127.59570312 C183.55960938 128.75972656 183.55960938 128.75972656 183.40771484 129.94726562 C183.31232422 130.65496094 183.21693359 131.36265625 183.11865234 132.09179688 C182.9107509 134.15346525 182.9107509 134.15346525 183.68115234 136.08398438 C184.2053121 139.14158295 182.92447277 140.5704961 181.28271484 143.13476562 C180.75162109 143.98039063 180.22052734 144.82601562 179.67333984 145.69726562 C178.03271484 148.13476562 178.03271484 148.13476562 176.39208984 150.13476562 C174.86638705 152.09249688 174.86638705 152.09249688 174.56005859 154.65820312 C173.57738789 159.27311589 169.79931411 161.60914857 166.03271484 164.13476562 C158.86609364 167.60838304 150.86457747 167.95191118 143.03271484 167.13476562 C140.64990234 166.11523438 140.64990234 166.11523438 139.03271484 165.13476562 C139.03271484 164.47476563 139.03271484 163.81476563 139.03271484 163.13476562 C139.74556641 162.75964844 140.45841797 162.38453125 141.19287109 161.99804688 C144.16051498 160.41237443 147.10088975 158.78565764 150.03271484 157.13476562 C150.68369141 156.77511719 151.33466797 156.41546875 152.00537109 156.04492188 C160.05209955 151.00382721 165.85233208 141.49553116 170.03271484 133.13476562 C170.03271484 132.47476563 170.03271484 131.81476563 170.03271484 131.13476562 C169.57123047 131.9571875 169.10974609 132.77960938 168.63427734 133.62695312 C160.84078195 146.96522785 152.2407378 155.02826492 138.03271484 161.13476562 C137.15873047 161.51375 136.28474609 161.89273438 135.38427734 162.28320312 C131.94285036 163.52943416 128.66711564 163.76516554 125.03271484 164.13476562 C125.22607422 164.81539062 125.41943359 165.49601563 125.61865234 166.19726562 C135.49060659 202.94830321 128.30603496 239.38075004 112.03271484 273.13476562 C111.43330078 274.39353516 111.43330078 274.39353516 110.82177734 275.67773438 C103.97398307 289.74406337 94.96554232 302.09497475 85.03271484 314.13476562 C84.44619141 314.84632813 83.85966797 315.55789063 83.25537109 316.29101562 C79.81520446 320.34744794 76.181187 323.92199937 72.12255859 327.35742188 C69.94021762 329.21343149 67.83429556 331.13906882 65.72021484 333.07226562 C36.25776527 359.21074653 -5.54303457 375.91004778 -44.96728516 377.13476562 C-45.91023437 377.17263184 -46.85318359 377.21049805 -47.82470703 377.24951172 C-75.33836542 378.24778744 -101.3070256 374.17532492 -126.96728516 364.13476562 C-127.78616211 363.81636719 -128.60503906 363.49796875 -129.44873047 363.16992188 C-153.01881286 353.80792788 -173.13616484 339.02117623 -190.96728516 321.13476562 C-191.75748047 320.379375 -192.54767578 319.62398438 -193.36181641 318.84570312 C-209.53942385 303.21693212 -223.04744759 281.22037818 -230.96728516 260.13476562 C-231.20688965 259.51794922 -231.44649414 258.90113281 -231.69335938 258.265625 C-234.82753432 250.16486591 -237.408745 242.07406197 -239.21728516 233.57226562 C-239.36818604 232.86642334 -239.51908691 232.16058105 -239.67456055 231.43334961 C-242.23969817 218.54407499 -243.30255523 205.80084019 -243.22802734 192.68823242 C-243.21723939 190.4377177 -243.22803971 188.18799194 -243.24072266 185.9375 C-243.24736073 178.169516 -242.76160242 170.83216397 -241.42578125 163.1574707 C-238.30432397 142.57878985 -242.97104734 123.1182272 -248.45385742 103.44384766 C-253.36939311 85.77481677 -253.36939311 85.77481677 -252.96728516 78.13476562 C-253.62728516 78.13476562 -254.28728516 78.13476562 -254.96728516 78.13476562 C-254.96728516 87.37476563 -254.96728516 96.61476563 -254.96728516 106.13476562 C-265.93419094 100.65131273 -271.14162093 87.93359889 -275.13916016 76.90039062 C-279.56000171 60.13455757 -278.60758184 40.44936971 -272.96728516 24.13476562 C-272.58185547 22.99007812 -272.19642578 21.84539062 -271.79931641 20.66601562 C-267.37699477 8.41518288 -260.92778115 -1.66063665 -252.96728516 -11.86523438 C-252.42458984 -12.63996094 -251.88189453 -13.4146875 -251.32275391 -14.21289062 C-250.87544922 -14.75816406 -250.42814453 -15.3034375 -249.96728516 -15.86523438 C-249.30728516 -15.86523438 -248.64728516 -15.86523438 -247.96728516 -15.86523438 C-247.96728516 -16.52523437 -247.96728516 -17.18523437 -247.96728516 -17.86523438 C-247.30728516 -17.86523438 -246.64728516 -17.86523438 -245.96728516 -17.86523438 C-244.04300407 -13.7645968 -242.12929395 -9.65910675 -240.21728516 -5.55273438 C-239.67845703 -4.40482422 -239.13962891 -3.25691406 -238.58447266 -2.07421875 C-223.02671882 31.41289773 -215.56693556 69.20244349 -228.14208984 105.00146484 C-230.63956316 111.57771819 -233.60932967 117.95375022 -236.96728516 124.13476562 C-232.92784886 122.8448616 -231.22728565 121.70395079 -229.15478516 118.00976562 C-228.65205078 117.11902344 -228.14931641 116.22828125 -227.63134766 115.31054688 C-225.34391307 110.94509073 -223.17451449 106.5244209 -220.99926758 102.10229492 C-218.04995836 96.16655623 -214.72625347 90.59857576 -210.96728516 85.13476562 C-210.36400391 84.25691406 -209.76072266 83.3790625 -209.13916016 82.47460938 C-178.9729189 39.86172792 -138.24552072 16.11014223 -87.27148438 6.66699219 C-82.5207292 5.90176045 -77.76704739 5.45152914 -72.96728516 5.13476562 C-98.26099394 4.36844438 -98.26099394 4.36844438 -122.96728516 9.13476562 C-124.01658203 9.43511719 -125.06587891 9.73546875 -126.14697266 10.04492188 C-150.11839897 17.38895301 -172.22087091 30.57253433 -190.36572266 47.80664062 C-191.96728516 49.13476562 -191.96728516 49.13476562 -193.96728516 49.13476562 C-193.96728516 49.79476562 -193.96728516 50.45476562 -193.96728516 51.13476562 C-195.59354919 52.51709006 -197.25978536 53.85414078 -198.96728516 55.13476562 C-197.40973272 33.78122418 -176.01291465 13.03830599 -160.99462891 -0.26367188 C-114.14529021 -40.52387777 -49.62358014 -27.75888444 0 0 Z " fill="#F4F5F3" transform="translate(384.96728515625,175.865234375)"/>
<path d="M0 0 C2.64 0 5.28 0 8 0 C6.68 1.32 5.36 2.64 4 4 C5.32 4.33 6.64 4.66 8 5 C8 5.66 8 6.32 8 7 C9.32 6.67 10.64 6.34 12 6 C12 5.34 12 4.68 12 4 C12.66 4 13.32 4 14 4 C13.8125 6.375 13.8125 6.375 13 9 C9.94994397 10.97356567 8.01495206 11.00051559 4.375 10.875 C0.5540473 9.88438263 0.11412835 9.12085613 -2 6 C-3.32 6 -4.64 6 -6 6 C-4.79367548 9.43338516 -3.61522816 11.50364585 -1 14 C-1 14.66 -1 15.32 -1 16 C-1.66 16 -2.32 16 -3 16 C-5.01187469 13.98812531 -6.57361947 12.40560209 -8 10 C-7.92087652 6.51856674 -7.46645256 5.46645256 -5 3 C-2.375 3.375 -2.375 3.375 0 4 C0 2.68 0 1.36 0 0 Z M-7 12 C-7 12.66 -7 13.32 -7 14 C-6.34 14 -5.68 14 -5 14 C-5 16.31 -5 18.62 -5 21 C-6.32 21.33 -7.64 21.66 -9 22 C-8.67 23.65 -8.34 25.3 -8 27 C-9.14626322 26.02133662 -10.29199788 25.04205413 -11.4375 24.0625 C-12.07558594 23.51722656 -12.71367187 22.97195313 -13.37109375 22.41015625 C-15.98388675 20.14824193 -15.98388675 20.14824193 -16.3125 17.125 C-16 14 -16 14 -14.3125 12.0625 C-11.43497994 10.74039619 -9.97788882 11.09008953 -7 12 Z " fill="#F89828" transform="translate(272,546)"/>
<path d="M0 0 C0.33 0 0.66 0 1 0 C2.02322003 8.15165294 2.33657016 16.26236334 2.60546875 24.46875 C2.64285156 25.49484375 2.68023437 26.5209375 2.71875 27.578125 C2.74904297 28.50012695 2.77933594 29.42212891 2.81054688 30.37207031 C3.10938714 35.49980334 3.10938714 35.49980334 5.5625 39.8125 C6.036875 40.204375 6.51125 40.59625 7 41 C5.92598892 43.91517292 5.22189824 45.77810176 3 48 C1.68 48 0.36 48 -1 48 C-1 47.34 -1 46.68 -1 46 C0.98 45.505 0.98 45.505 3 45 C3 44.01 3 43.02 3 42 C2.34 42.99 1.68 43.98 1 45 C-2.19579631 45.407974 -4.14977421 45.56681719 -6.875 43.75 C-8 42 -8 42 -8 38 C-6.35 38.33 -4.7 38.66 -3 39 C-2.96241577 37.80624756 -2.96241577 37.80624756 -2.92407227 36.58837891 C-2.80703014 32.93379832 -2.68480038 29.27940825 -2.5625 25.625 C-2.52318359 24.37332031 -2.48386719 23.12164062 -2.44335938 21.83203125 C-1.76028963 1.76028963 -1.76028963 1.76028963 0 0 Z " fill="#E3E4E4" transform="translate(280,357)"/>
<path d="M0 0 C-1.20381448 2.49361571 -2.45428722 4.68143083 -4 7 C-3.01 7.33 -2.02 7.66 -1 8 C-0.67 6.35 -0.34 4.7 0 3 C0.33 3 0.66 3 1 3 C1.25 5.3125 1.25 5.3125 1 8 C-0.5 9.8125 -0.5 9.8125 -3 11 C-5.72079845 11.23884872 -8.25814068 11.13709297 -11 11 C-11 11.99 -11 12.98 -11 14 C-11.66 14 -12.32 14 -13 14 C-13 14.66 -13 15.32 -13 16 C-9.72226496 15.24849977 -9.72226496 15.24849977 -8 12 C-7.875 14.875 -7.875 14.875 -8 18 C-10 20 -10 20 -13.4375 20.0625 C-17 19 -17 19 -18.125 17.3671875 C-18.9375 15.4375 -18.9375 15.4375 -20 12 C-18.68 11.01 -17.36 10.02 -16 9 C-16 12 -16 12 -17 14 C-15.68 13.67 -14.36 13.34 -13 13 C-12.67 11.68 -12.34 10.36 -12 9 C-12.99 8.67 -13.98 8.34 -15 8 C-14.360625 7.7525 -13.72125 7.505 -13.0625 7.25 C-10.83323057 6.20668205 -10.83323057 6.20668205 -10.375 4.0625 C-10.25125 3.381875 -10.1275 2.70125 -10 2 C-8 -1 -8 -1 -6.125 -1.8125 C-3.50147776 -2.04398726 -2.21976911 -1.34771696 0 0 Z " fill="#F89827" transform="translate(480,371)"/>
<path d="M0 0 C3.5154466 1.95302589 6.48239591 3.82968374 9 7 C9.51172898 9.99726972 9.44151107 11.3377334 7.75 13.875 C6 15 6 15 3.8125 14.6875 C3.214375 14.460625 2.61625 14.23375 2 14 C3.32 13.34 4.64 12.68 6 12 C5.67 11.67 5.34 11.34 5 11 C4.01 11.66 3.02 12.32 2 13 C0.68 13 -0.64 13 -2 13 C-1.67 13.99 -1.34 14.98 -1 16 C-2.9375 15.1875 -2.9375 15.1875 -5 14 C-5.33 13.01 -5.66 12.02 -6 11 C-7.98491642 11.26676204 -7.98491642 11.26676204 -10 12 C-10.33 12.99 -10.66 13.98 -11 15 C-10.02792965 16.67580052 -10.02792965 16.67580052 -8.5625 18.1875 C-7.716875 19.115625 -6.87125 20.04375 -6 21 C-9.7952131 19.50902342 -11.61042731 17.24299151 -14 14 C-10.49364791 9.11615245 -10.49364791 9.11615245 -7.875 8.5 C-7.25625 8.335 -6.6375 8.17 -6 8 C-5.67 7.175 -5.34 6.35 -5 5.5 C-4.67 4.675 -4.34 3.85 -4 3 C-1.875 2.1875 -1.875 2.1875 0 2 C0 1.34 0 0.68 0 0 Z " fill="#E2E2E2" transform="translate(127,220)"/>
<path d="M0 0 C2.375 1.0625 2.375 1.0625 4 3 C4.5625 6.4375 4.5625 6.4375 4 10 C1.875 12.5 1.875 12.5 -1 14 C-4.21382832 13.93572343 -6.16137435 13.53112958 -8.875 11.8125 C-10.58558918 9.05655076 -10.45339217 7.17374516 -10 4 C-7.20125452 -0.09047416 -4.83066808 -0.70447243 0 0 Z " fill="#F7F7F7" transform="translate(383,465)"/>
<path d="M0 0 C3.5625 0.5625 3.5625 0.5625 6.0625 2.6875 C7.5625 5.5625 7.5625 5.5625 7.5 8.6875 C6.09727444 12.98919173 6.09727444 12.98919173 3.5625 14.5625 C-0.06781776 15.10318562 -1.75964079 15.02629841 -4.8125 12.9375 C-6.9128727 9.86772452 -6.97043835 8.21693439 -6.4375 4.5625 C-4.82686834 0.96226452 -3.93610526 0.64408995 0 0 Z " fill="#EDEDED" transform="translate(206.4375,291.4375)"/>
<path d="M0 0 C-1.76429199 4.97209562 -4.3939166 9.43438061 -7 14 C-8.984375 12.66796875 -8.984375 12.66796875 -11 11 C-11.25 8.3125 -11.25 8.3125 -11 6 C-11.66 6 -12.32 6 -13 6 C-13 5.34 -13 4.68 -13 4 C-15.97 4 -18.94 4 -22 4 C-22 3.67 -22 3.34 -22 3 C-19.36 3 -16.72 3 -14 3 C-14 2.34 -14 1.68 -14 1 C-16.14576637 0.97314062 -18.29162645 0.95366912 -20.4375 0.9375 C-22.22994141 0.92009766 -22.22994141 0.92009766 -24.05859375 0.90234375 C-26.88873341 0.66098208 -26.88873341 0.66098208 -28 2 C-29.85287502 2.07226502 -31.70833878 2.0838122 -33.5625 2.0625 C-34.57441406 2.05347656 -35.58632812 2.04445313 -36.62890625 2.03515625 C-37.41136719 2.02355469 -38.19382813 2.01195312 -39 2 C-39 1.67 -39 1.34 -39 1 C-26.30612585 -2.13152842 -12.89322182 -1.66364153 0 0 Z " fill="#F4EEE3" transform="translate(270,267)"/>
<path d="M0 0 C1.65 0 3.3 0 5 0 C5 4 5 4 3 7 C2.34 7 1.68 7 1 7 C1.33 7.66 1.66 8.32 2 9 C3.32 8.67 4.64 8.34 6 8 C6 6.68 6 5.36 6 4 C6.66 4 7.32 4 8 4 C8.1875 6.375 8.1875 6.375 8 9 C4.32561113 11.44959258 2.33163807 11.07735068 -2 11 C-2.99 11.33 -3.98 11.66 -5 12 C-5.73323796 14.01508358 -5.73323796 14.01508358 -6 16 C-5.01 16 -4.02 16 -3 16 C-2.67 15.01 -2.34 14.02 -2 13 C-1.34 13 -0.68 13 0 13 C-0.35681302 15.64041638 -0.66743563 17.54272399 -2.25 19.71875 C-4 21 -4 21 -6.26171875 20.85546875 C-7.06222656 20.63503906 -7.86273438 20.41460938 -8.6875 20.1875 C-9.49574219 19.97480469 -10.30398438 19.76210938 -11.13671875 19.54296875 C-11.75160156 19.36378906 -12.36648438 19.18460938 -13 19 C-11 15 -9 11 -7 7 C-6.01 7.33 -5.02 7.66 -4 8 C-3.67 6.35 -3.34 4.7 -3 3 C-2.67 3.99 -2.34 4.98 -2 6 C-1.38125 5.505 -0.7625 5.01 -0.125 4.5 C2 3 2 3 4 3 C4 2.34 4 1.68 4 1 C2.68 0.67 1.36 0.34 0 0 Z " fill="#F89727" transform="translate(300,517)"/>
<path d="M0 0 C0.99386719 0.00902344 1.98773438 0.01804687 3.01171875 0.02734375 C4.15060547 0.04474609 4.15060547 0.04474609 5.3125 0.0625 C5.3125 0.7225 5.3125 1.3825 5.3125 2.0625 C6.3025 2.3925 7.2925 2.7225 8.3125 3.0625 C6.6625 3.0625 5.0125 3.0625 3.3125 3.0625 C3.3125 2.4025 3.3125 1.7425 3.3125 1.0625 C2.3225 1.5575 2.3225 1.5575 1.3125 2.0625 C1.9725 2.784375 2.6325 3.50625 3.3125 4.25 C5.3125 7.0625 5.3125 7.0625 5.75 9.6875 C5.3125 12.0625 5.3125 12.0625 4.0625 13.875 C2.3125 15.0625 2.3125 15.0625 -1.6875 15.0625 C-1.6875 14.4025 -1.6875 13.7425 -1.6875 13.0625 C-0.3675 12.7325 0.9525 12.4025 2.3125 12.0625 C1.9825 11.7325 1.6525 11.4025 1.3125 11.0625 C0.9825 11.3925 0.6525 11.7225 0.3125 12.0625 C-4.96315392 12.52125252 -4.96315392 12.52125252 -7.5625 10.875 C-9.05456958 8.47111012 -8.89662092 6.85077898 -8.6875 4.0625 C-8.6875 3.0725 -8.6875 2.0825 -8.6875 1.0625 C-5.53819107 0.01273036 -3.29935544 -0.03881595 0 0 Z " fill="#E98715" transform="translate(280.6875,69.9375)"/>
<path d="M0 0 C1.65 0 3.3 0 5 0 C5.33 0.99 5.66 1.98 6 3 C6.99 3 7.98 3 9 3 C9 3.66 9 4.32 9 5 C6.03 4.505 6.03 4.505 3 4 C3.185625 4.495 3.37125 4.99 3.5625 5.5 C4.20139296 9.15081689 3.54905291 12.33964724 3 16 C0.33333333 15.33333333 -2.33333333 14.66666667 -5 14 C-4.34 15.32 -3.68 16.64 -3 18 C-5.46800047 16.84826645 -7.04783565 15.95216435 -9 14 C-9.99 14 -10.98 14 -12 14 C-12.33 14.99 -12.66 15.98 -13 17 C-11.68 17.99 -10.36 18.98 -9 20 C-9.33 20.99 -9.66 21.98 -10 23 C-12.31 21.02 -14.62 19.04 -17 17 C-14.36363636 11.72727273 -14.36363636 11.72727273 -12 10 C-9.8125 10.3125 -9.8125 10.3125 -8 11 C-7.67 8.69 -7.34 6.38 -7 4 C-6.01 3.67 -5.02 3.34 -4 3 C-3.34 3.66 -2.68 4.32 -2 5 C-2.99 5 -3.98 5 -5 5 C-5 7.31 -5 9.62 -5 12 C-3.02 11.67 -1.04 11.34 1 11 C1.0270043 9.54176788 1.04639787 8.08339325 1.0625 6.625 C1.07410156 5.81289063 1.08570313 5.00078125 1.09765625 4.1640625 C1.14466334 1.95062858 1.14466334 1.95062858 0 0 Z " fill="#F99828" transform="translate(453,392)"/>
<path d="M0 0 C0.99 0.66 1.98 1.32 3 2 C2.01 2 1.02 2 0 2 C0 4.31 0 6.62 0 9 C1.98 8.67 3.96 8.34 6 8 C6 5.69 6 3.38 6 1 C6.66 1 7.32 1 8 1 C8 1.66 8 2.32 8 3 C8.66 3 9.32 3 10 3 C11.58538318 5.51796153 12.0373656 6.67865586 11.6875 9.6875 C11 12 11 12 10 13 C8.00041636 13.04080783 5.99954746 13.04254356 4 13 C5.32 12.67 6.64 12.34 8 12 C8 11.01 8 10.02 8 9 C6.8553125 9.4640625 6.8553125 9.4640625 5.6875 9.9375 C3.81210323 10.67893593 1.91315348 11.36228217 0 12 C0.66 12.33 1.32 12.66 2 13 C2 13.66 2 14.32 2 15 C-0.46800047 13.84826645 -2.04783565 12.95216435 -4 11 C-4.99 11 -5.98 11 -7 11 C-7.33 11.99 -7.66 12.98 -8 14 C-6.68 14.99 -5.36 15.98 -4 17 C-4.33 17.99 -4.66 18.98 -5 20 C-7.31 18.02 -9.62 16.04 -12 14 C-9.36363636 8.72727273 -9.36363636 8.72727273 -7 7 C-4.8125 7.3125 -4.8125 7.3125 -3 8 C-2.87625 6.865625 -2.7525 5.73125 -2.625 4.5625 C-2.41875 3.386875 -2.2125 2.21125 -2 1 C-1.34 0.67 -0.68 0.34 0 0 Z " fill="#F99929" transform="translate(128,395)"/>
<path d="M0 0 C0.28875 0.639375 0.5775 1.27875 0.875 1.9375 C1.82823451 4.15206079 1.82823451 4.15206079 4 5 C4 5.66 4 6.32 4 7 C4.66 7 5.32 7 6 7 C6 7.66 6 8.32 6 9 C5.38125 8.67 4.7625 8.34 4.125 8 C2.08981656 6.85806765 2.08981656 6.85806765 0 7 C0.95865509 9.33075929 0.95865509 9.33075929 4 11 C1.03 10.505 1.03 10.505 -2 10 C-2.33 9.01 -2.66 8.02 -3 7 C-3.99 7 -4.98 7 -6 7 C-6 7.66 -6 8.32 -6 9 C-5.34 9 -4.68 9 -4 9 C-4 9.99 -4 10.98 -4 12 C-5.98 12 -7.96 12 -10 12 C-10 13.65 -10 15.3 -10 17 C-9.01 17.33 -8.02 17.66 -7 18 C-3.9890638 15.9927092 -3.36983503 15.16115776 -2 12 C-1.34 12.33 -0.68 12.66 0 13 C0.85056945 16.55692677 1.16909807 18.49270578 0 22 C-2.31 22.33 -4.62 22.66 -7 23 C-6 22 -5 21 -4 20 C-4.928125 20.061875 -5.85625 20.12375 -6.8125 20.1875 C-10 20 -10 20 -11.875 18.8125 C-13.38332602 16.38241919 -13.36023622 14.80984248 -13 12 C-12.34 11.34 -11.68 10.68 -11 10 C-10.01 10 -9.02 10 -8 10 C-7.67 7.36 -7.34 4.72 -7 2 C-5.35 2.33 -3.7 2.66 -2 3 C-2 2.34 -2 1.68 -2 1 C-1.34 0.67 -0.68 0.34 0 0 Z " fill="#E78818" transform="translate(455,532)"/>
<path d="M0 0 C0.28875 0.639375 0.5775 1.27875 0.875 1.9375 C1.82823451 4.15206079 1.82823451 4.15206079 4 5 C4 5.66 4 6.32 4 7 C4.66 7 5.32 7 6 7 C6 7.66 6 8.32 6 9 C5.38125 8.67 4.7625 8.34 4.125 8 C2.08981656 6.85806765 2.08981656 6.85806765 0 7 C0.95865509 9.33075929 0.95865509 9.33075929 4 11 C1.03 10.505 1.03 10.505 -2 10 C-2.33 9.01 -2.66 8.02 -3 7 C-3.99 7 -4.98 7 -6 7 C-6 7.66 -6 8.32 -6 9 C-5.34 9 -4.68 9 -4 9 C-4 9.99 -4 10.98 -4 12 C-5.98 12 -7.96 12 -10 12 C-10 13.65 -10 15.3 -10 17 C-9.01 17.33 -8.02 17.66 -7 18 C-3.9890638 15.9927092 -3.36983503 15.16115776 -2 12 C-1.34 12.33 -0.68 12.66 0 13 C0.85056945 16.55692677 1.16909807 18.49270578 0 22 C-2.31 22.33 -4.62 22.66 -7 23 C-6 22 -5 21 -4 20 C-4.928125 20.061875 -5.85625 20.12375 -6.8125 20.1875 C-10 20 -10 20 -11.875 18.8125 C-13.38332602 16.38241919 -13.36023622 14.80984248 -13 12 C-12.34 11.34 -11.68 10.68 -11 10 C-10.01 10 -9.02 10 -8 10 C-7.67 7.36 -7.34 4.72 -7 2 C-5.35 2.33 -3.7 2.66 -2 3 C-2 2.34 -2 1.68 -2 1 C-1.34 0.67 -0.68 0.34 0 0 Z " fill="#E78818" transform="translate(455,212)"/>
<path d="M0 0 C0.66 0 1.32 0 2 0 C2.50641298 4.35344562 3.00398642 8.70785825 3.5 13.0625 C3.64308594 14.29162109 3.78617187 15.52074219 3.93359375 16.78710938 C4.06894531 17.98271484 4.20429688 19.17832031 4.34375 20.41015625 C4.53227539 22.05189819 4.53227539 22.05189819 4.72460938 23.72680664 C5.01398305 27.16619742 5.04582048 30.5501 5 34 C4.01 34 3.02 34 2 34 C1.67 31.69 1.34 29.38 1 27 C0.67 30.96 0.34 34.92 0 39 C-0.33 39 -0.66 39 -1 39 C-1.20638953 12.0423526 -1.20638953 12.0423526 0 0 Z " fill="#F4E7D5" transform="translate(337,261)"/>
<path d="M0 0 C0.66 0 1.32 0 2 0 C9.07612488 21.60622596 9.07612488 21.60622596 8 30 C7.01 30.66 6.02 31.32 5 32 C5.495 27.545 5.495 27.545 6 23 C4.68 22.67 3.36 22.34 2 22 C2 20.68 2 19.36 2 18 C1.34 18 0.68 18 0 18 C0 12.06 0 6.12 0 0 Z " fill="#F5F4EF" transform="translate(352,256)"/>
<path d="M0 0 C0.33 0 0.66 0 1 0 C2.05648755 7.71152724 2.11624053 15.28665821 2.0625 23.0625 C2.05798828 24.30966797 2.05347656 25.55683594 2.04882812 26.84179688 C2.03713163 29.89458221 2.02074086 32.94726498 2 36 C0.68 35.34 -0.64 34.68 -2 34 C-2.02946035 30.37501758 -2.04695131 26.75006668 -2.0625 23.125 C-2.07087891 22.11179687 -2.07925781 21.09859375 -2.08789062 20.0546875 C-2.10830197 13.68634719 -2.06430278 7.29650457 -1 1 C-0.67 0.67 -0.34 0.34 0 0 Z " fill="#F2F1EA" transform="translate(280,357)"/>
<path d="M0 0 C3.59178954 3.59178954 3.05289607 8.98574502 3.09765625 13.83984375 C3.09109545 15.53909024 3.07929794 17.23832387 3.0625 18.9375 C3.05798828 19.81212891 3.05347656 20.68675781 3.04882812 21.58789062 C3.03714834 23.72529047 3.01921689 25.86265463 3 28 C1.68 28 0.36 28 -1 28 C-1.97083273 23.09923636 -2.18315688 18.41037688 -2.1875 13.4375 C-2.19974609 12.69564453 -2.21199219 11.95378906 -2.22460938 11.18945312 C-2.23580706 6.99778665 -1.91889991 3.83021523 0 0 Z " fill="#F58E17" transform="translate(293,366)"/>
<path d="M0 0 C0.66 0 1.32 0 2 0 C3.81862084 11.65329858 4.54561845 23.22195201 5 35 C4.67 34.34 4.34 33.68 4 33 C2.68 32.34 1.36 31.68 0 31 C0 20.77 0 10.54 0 0 Z " fill="#F1E8D8" transform="translate(287,358)"/>
<path d="M0 0 C1.65322266 0.01740234 1.65322266 0.01740234 3.33984375 0.03515625 C4.99693359 0.04869141 4.99693359 0.04869141 6.6875 0.0625 C7.54214844 0.07410156 8.39679688 0.08570313 9.27734375 0.09765625 C9.27734375 0.42765625 9.27734375 0.75765625 9.27734375 1.09765625 C6.63734375 1.09765625 3.99734375 1.09765625 1.27734375 1.09765625 C1.27734375 1.75765625 1.27734375 2.41765625 1.27734375 3.09765625 C3.91734375 2.76765625 6.55734375 2.43765625 9.27734375 2.09765625 C4.40879405 5.34335605 0.33032061 5.23111506 -5.328125 5.1953125 C-6.16732986 5.19389755 -7.00653473 5.1924826 -7.87117004 5.19102478 C-10.55086841 5.1854284 -13.23048315 5.1728766 -15.91015625 5.16015625 C-17.72721233 5.15514078 -19.54426973 5.15057796 -21.36132812 5.14648438 C-25.81513638 5.13546016 -30.26888214 5.11819803 -34.72265625 5.09765625 C-34.06265625 3.77765625 -33.40265625 2.45765625 -32.72265625 1.09765625 C-31.97628906 1.27039063 -31.22992188 1.443125 -30.4609375 1.62109375 C-25.23795916 2.28692798 -20.1583913 1.98230919 -14.91015625 1.72265625 C-13.84861328 1.67882812 -12.78707031 1.635 -11.69335938 1.58984375 C-7.47088654 1.39533444 -3.82142372 0.13706685 0 0 Z " fill="#F79117" transform="translate(310.72265625,145.90234375)"/>
<path d="M0 0 C0.33 1.32 0.66 2.64 1 4 C1.66 4 2.32 4 3 4 C3.25 6.3125 3.25 6.3125 3 9 C1.375 10.9375 1.375 10.9375 -1 12 C-4.25 11.1875 -4.25 11.1875 -7 10 C-8.33359073 3.57451737 -8.33359073 3.57451737 -6.875 1.0625 C-4.46420662 -0.30361625 -2.72705554 -0.22111261 0 0 Z " fill="#E3E3E3" transform="translate(146,205)"/>
<path d="M0 0 C0.33 0 0.66 0 1 0 C1.99 3.96 2.98 7.92 4 12 C-0.455 12.495 -0.455 12.495 -5 13 C-7.30163882 9.54754176 -7.34490322 8.05261287 -7 4 C-5 2 -5 2 -2.375 1.875 C-1.59125 1.91625 -0.8075 1.9575 0 2 C0 1.34 0 0.68 0 0 Z " fill="#E6E2DE" transform="translate(154,195)"/>
<path d="M0 0 C0.99 0.33 1.98 0.66 3 1 C1.92598892 3.91517292 1.22189824 5.77810176 -1 8 C-3.65537372 8.56520003 -6.29144713 8.73788198 -9 9 C-8.67 9.886875 -8.34 10.77375 -8 11.6875 C-7.08777857 14.70923347 -6.81669042 16.88373706 -7 20 C-7.66 19.67 -8.32 19.34 -9 19 C-9.33 22.3 -9.66 25.6 -10 29 C-10.33 29 -10.66 29 -11 29 C-11 22.73 -11 16.46 -11 10 C-12.32 9.67 -13.64 9.34 -15 9 C-14.01 9 -13.02 9 -12 9 C-11.87625 8.195625 -11.7525 7.39125 -11.625 6.5625 C-11.41875 5.716875 -11.2125 4.87125 -11 4 C-10.34 3.67 -9.68 3.34 -9 3 C-9 4.32 -9 5.64 -9 7 C-6.36 6.67 -3.72 6.34 -1 6 C-1.020625 5.195625 -1.04125 4.39125 -1.0625 3.5625 C-1 1 -1 1 0 0 Z " fill="#F3EFE4" transform="translate(519,331)"/>
<path d="M0 0 C0.33 0 0.66 0 1 0 C1.33931227 2.66602496 1.67157176 5.33263014 2 8 C2.09539062 8.74378906 2.19078125 9.48757813 2.2890625 10.25390625 C2.89227676 15.20888051 3.09075591 20.00842496 3 25 C2.360625 25.2475 1.72125 25.495 1.0625 25.75 C-1.19303909 26.80283433 -1.19303909 26.80283433 -1.62890625 29.078125 C-1.75136719 29.71234375 -1.87382812 30.3465625 -2 31 C-2.16993336 20.69070972 -2.24846606 10.10864996 0 0 Z " fill="#F4EEE0" transform="translate(374,357)"/>
<path d="M0 0 C0.7425 0.391875 1.485 0.78375 2.25 1.1875 C0.95700306 4.07187779 -0.40941363 6.05969421 -2.75 8.1875 C-1.1 8.1875 0.55 8.1875 2.25 8.1875 C2.25 6.8675 2.25 5.5475 2.25 4.1875 C2.91 4.1875 3.57 4.1875 4.25 4.1875 C3.92 6.1675 3.59 8.1475 3.25 10.1875 C0.61 10.5175 -2.03 10.8475 -4.75 11.1875 C-6.87758042 8.88971314 -7.76532597 7.81586483 -7.6875 4.625 C-6.12515058 0.5628915 -4.37485318 -1.29257026 0 0 Z " fill="#E88817" transform="translate(473.75,516.8125)"/>
<path d="M0 0 C0.7425 0.391875 1.485 0.78375 2.25 1.1875 C0.95700306 4.07187779 -0.40941363 6.05969421 -2.75 8.1875 C-1.1 8.1875 0.55 8.1875 2.25 8.1875 C2.25 6.8675 2.25 5.5475 2.25 4.1875 C2.91 4.1875 3.57 4.1875 4.25 4.1875 C3.92 6.1675 3.59 8.1475 3.25 10.1875 C0.61 10.5175 -2.03 10.8475 -4.75 11.1875 C-6.87758042 8.88971314 -7.76532597 7.81586483 -7.6875 4.625 C-6.12515058 0.5628915 -4.37485318 -1.29257026 0 0 Z " fill="#E88817" transform="translate(153.75,516.8125)"/>
<path d="M0 0 C0.7425 0.391875 1.485 0.78375 2.25 1.1875 C0.95700306 4.07187779 -0.40941363 6.05969421 -2.75 8.1875 C-1.1 8.1875 0.55 8.1875 2.25 8.1875 C2.25 6.8675 2.25 5.5475 2.25 4.1875 C2.91 4.1875 3.57 4.1875 4.25 4.1875 C3.92 6.1675 3.59 8.1475 3.25 10.1875 C0.61 10.5175 -2.03 10.8475 -4.75 11.1875 C-6.87758042 8.88971314 -7.76532597 7.81586483 -7.6875 4.625 C-6.12515058 0.5628915 -4.37485318 -1.29257026 0 0 Z " fill="#E88817" transform="translate(473.75,196.8125)"/>
<path d="M0 0 C1.9375 0.75 1.9375 0.75 3.9375 2.75 C1.9575 5.06 -0.0225 7.37 -2.0625 9.75 C1.75163002 8.5821734 1.75163002 8.5821734 4.25 5.625 C4.476875 5.00625 4.70375 4.3875 4.9375 3.75 C4.9375 5.73 4.9375 7.71 4.9375 9.75 C2.80390881 11.04539465 1.46142246 11.78274515 -1.0625 11.625 C-3.65771914 10.48959163 -5.17914483 8.83514322 -7.0625 6.75 C-4.56403139 -0.55321593 -4.56403139 -0.55321593 0 0 Z " fill="#E68717" transform="translate(144.0625,525.25)"/>
<path d="M0 0 C0.33 0 0.66 0 1 0 C0.66009167 5.37992836 0.31442207 9.53273547 -3 14 C-3.33 13.34 -3.66 12.68 -4 12 C-4.99 12 -5.98 12 -7 12 C-7.33 13.65 -7.66 15.3 -8 17 C-8.66 17 -9.32 17 -10 17 C-10.36923077 10.47692308 -10.36923077 10.47692308 -8.5 8.0625 C-8.005 7.711875 -7.51 7.36125 -7 7 C-6.67 7.66 -6.34 8.32 -6 9 C-5.67 7.35 -5.34 5.7 -5 4 C-4.01 4.33 -3.02 4.66 -2 5 C-1.855625 4.360625 -1.71125 3.72125 -1.5625 3.0625 C-1 1 -1 1 0 0 Z " fill="#F4F7F8" transform="translate(513,388)"/>
<path d="M0 0 C1.32 0 2.64 0 4 0 C4.33 0.99 4.66 1.98 5 3 C5.598125 2.814375 6.19625 2.62875 6.8125 2.4375 C9 2 9 2 12 3 C10.04594482 4.50587739 8.08718716 6.00478644 6.125 7.5 C5.56941406 7.92925781 5.01382813 8.35851562 4.44140625 8.80078125 C0.2265625 12 0.2265625 12 -2 12 C-1.85904936 10.3745692 -1.71207913 8.74965949 -1.5625 7.125 C-1.48128906 6.22007812 -1.40007812 5.31515625 -1.31640625 4.3828125 C-1 2 -1 2 0 0 Z " fill="#F5F1E7" transform="translate(165,320)"/>
<path d="M0 0 C0.33 0 0.66 0 1 0 C1.18398033 8.57297223 0.60557807 17.07984633 0 25.625 C-0.09666651 27.02471805 -0.19302288 28.42445755 -0.2890625 29.82421875 C-0.52300387 33.21636863 -0.76005825 36.60827017 -1 40 C-1.33 40 -1.66 40 -2 40 C-2.02505615 39.30962646 -2.0501123 38.61925293 -2.07592773 37.90795898 C-2.1926566 34.75098591 -2.31503178 31.59425543 -2.4375 28.4375 C-2.47681641 27.35146484 -2.51613281 26.26542969 -2.55664062 25.14648438 C-2.79518237 18.55733417 -2.79518237 18.55733417 -3.65625 12.03125 C-4.0408589 8.63969883 -3.59039659 7.07199328 -2.0625 4.0625 C-1.49208984 2.90427734 -1.49208984 2.90427734 -0.91015625 1.72265625 C-0.60980469 1.15417969 -0.30945313 0.58570313 0 0 Z " fill="#F78B0F" transform="translate(142,339)"/>
<path d="M0 0 C2 1 2 1 2.8515625 3.51171875 C3.10679687 4.55972656 3.36203125 5.60773438 3.625 6.6875 C3.88539063 7.72261719 4.14578125 8.75773437 4.4140625 9.82421875 C5.22456555 14.21714528 5.41853865 17.74438404 4 22 C2.68 21.34 1.36 20.68 0 20 C0 13.4 0 6.8 0 0 Z " fill="#EFEFEA" transform="translate(297,355)"/>
<path d="M0 0 C1.875 0.8125 1.875 0.8125 3.875 2.8125 C1.895 5.1225 -0.085 7.4325 -2.125 9.8125 C1.68913002 8.6446734 1.68913002 8.6446734 4.1875 5.6875 C4.414375 5.06875 4.64125 4.45 4.875 3.8125 C4.875 5.7925 4.875 7.7725 4.875 9.8125 C2.07629973 11.21185013 -0.02998792 11.06515405 -3.125 10.8125 C-5 9.625 -5 9.625 -6.125 7.8125 C-6.5625 5.3125 -6.5625 5.3125 -6.125 2.8125 C-4.06860027 0.60921457 -3.05069013 -0.26917854 0 0 Z " fill="#EA8A19" transform="translate(464.125,525.1875)"/>
<path d="M0 0 C0.33 0 0.66 0 1 0 C1.02505615 0.66418945 1.0501123 1.32837891 1.07592773 2.01269531 C1.67263971 19.02940269 1.67263971 19.02940269 3 36 C2.505 34.515 2.505 34.515 2 33 C1.01 33 0.02 33 -1 33 C-3.35723489 30.46815512 -4 29.52809907 -4 26 C-3.34 25.67 -2.68 25.34 -2 25 C-0.74802682 19.80970058 -0.6816293 14.4398149 -0.4375 9.125 C-0.39431641 8.24585938 -0.35113281 7.36671875 -0.30664062 6.4609375 C-0.20130661 4.30744203 -0.10022351 2.15373936 0 0 Z " fill="#F69521" transform="translate(141,360)"/>
<path d="M0 0 C1.485 0.99 1.485 0.99 3 2 C4.49576618 9.57280575 3.74330087 16.92146162 3.0625 24.5625 C2.96259766 25.76197266 2.86269531 26.96144531 2.75976562 28.19726562 C2.51420885 31.1322537 2.26077759 34.06633186 2 37 C1.67 37 1.34 37 1 37 C0.28488027 24.65141462 -0.14420386 12.36948647 0 0 Z " fill="#F6992B" transform="translate(366,357)"/>
<path d="M0 0 C1.875 0.8125 1.875 0.8125 3.875 2.8125 C1.895 5.1225 -0.085 7.4325 -2.125 9.8125 C1.68913002 8.6446734 1.68913002 8.6446734 4.1875 5.6875 C4.414375 5.06875 4.64125 4.45 4.875 3.8125 C4.875 5.7925 4.875 7.7725 4.875 9.8125 C2.07629973 11.21185013 -0.02998792 11.06515405 -3.125 10.8125 C-5 9.625 -5 9.625 -6.125 7.8125 C-6.5625 5.3125 -6.5625 5.3125 -6.125 2.8125 C-4.06860027 0.60921457 -3.05069013 -0.26917854 0 0 Z " fill="#EA8A19" transform="translate(464.125,205.1875)"/>
<path d="M0 0 C2 3.75 2 3.75 2 6 C0.35 6 -1.3 6 -3 6 C-3 6.66 -3 7.32 -3 8 C-3.99 8 -4.98 8 -6 8 C-6.020625 8.7425 -6.04125 9.485 -6.0625 10.25 C-7.14587926 13.42791249 -7.74474412 13.72751232 -10.5625 15.3125 C-11.696875 15.869375 -12.83125 16.42625 -14 17 C-14.66 16.34 -15.32 15.68 -16 15 C-15.0479279 13.99403703 -14.08812654 12.99538437 -13.125 12 C-12.32449219 11.1646875 -12.32449219 11.1646875 -11.5078125 10.3125 C-10 9 -10 9 -8 9 C-8 8.34 -8 7.68 -8 7 C-6.25 5.2734375 -6.25 5.2734375 -4 3.375 C-3.2575 2.74335938 -2.515 2.11171875 -1.75 1.4609375 C-1.1725 0.97882813 -0.595 0.49671875 0 0 Z " fill="#F5F1E6" transform="translate(171,335)"/>
<path d="M0 0 C0.66 0 1.32 0 2 0 C2.86883706 1.57533086 3.71959068 3.16064509 4.5625 4.75 C5.03816406 5.63171875 5.51382813 6.5134375 6.00390625 7.421875 C7.07998186 10.20701188 7.06528748 11.26980214 6 14 C5.01 14 4.02 14 3 14 C2.67 14.66 2.34 15.32 2 16 C2.33 13.03 2.66 10.06 3 7 C2.01 7.33 1.02 7.66 0 8 C0 7.34 0 6.68 0 6 C-3.12197478 7.3089572 -3.12197478 7.3089572 -5 10 C-5.66 10 -6.32 10 -7 10 C-5.63055898 7.05043472 -4.12169591 4.47531189 -2 2 C-1.34 2 -0.68 2 0 2 C0 1.34 0 0.68 0 0 Z " fill="#F3EFE5" transform="translate(137,158)"/>
<path d="M0 0 C0.66 0 1.32 0 2 0 C2.33 5.61 2.66 11.22 3 17 C1.68 17 0.36 17 -1 17 C-3 15 -3 15 -3.046875 13.046875 C-2.4566172 8.48014361 -1.66464929 4.32808816 0 0 Z " fill="#F4F0E5" transform="translate(308,258)"/>
<path d="M0 0 C2.375 1.0625 2.375 1.0625 4 3 C4.5625 6.4375 4.5625 6.4375 4 10 C1.875 12.5 1.875 12.5 -1 14 C-4.21382832 13.93572343 -6.16137435 13.53112958 -8.875 11.8125 C-10.58558918 9.05655076 -10.45339217 7.17374516 -10 4 C-7.20125452 -0.09047416 -4.83066808 -0.70447243 0 0 Z M-6.8125 2.0625 C-8.53965989 4.88049772 -8.47219016 6.76212461 -8 10 C-6.42304368 12.0785608 -6.42304368 12.0785608 -4 13 C-1.36462492 13.00635246 -1.36462492 13.00635246 1 12 C3.33391203 9.21885944 3.33391203 9.21885944 2.625 6.3125 C2.41875 5.549375 2.2125 4.78625 2 4 C1.34 4 0.68 4 0 4 C0 3.34 0 2.68 0 2 C-3.50715738 0.87567281 -3.50715738 0.87567281 -6.8125 2.0625 Z " fill="#E5E5E6" transform="translate(383,465)"/>
<path d="M0 0 C1.3125 2.0625 1.3125 2.0625 2 4 C1.34 4.66 0.68 5.32 0 6 C0 6.66 0 7.32 0 8 C-1.97746603 8.73080266 -3.98072489 9.39421747 -6 10 C-6.66 9.67 -7.32 9.34 -8 9 C-7.67 8.01 -7.34 7.02 -7 6 C-6.34 6.33 -5.68 6.66 -5 7 C-5.33 6.01 -5.66 5.02 -6 4 C-5.67 3.34 -5.34 2.68 -5 2 C-5.66 2 -6.32 2 -7 2 C-7 1.34 -7 0.68 -7 0 C-4.25509788 -1.37245106 -2.87939419 -0.93580311 0 0 Z " fill="#F5931F" transform="translate(530,294)"/>
<path d="M0 0 C-2.19301972 4.95667213 -5.67131272 8.76951672 -10 12 C-13.5 12 -13.5 12 -16 11 C-5.64705882 0 -5.64705882 0 0 0 Z " fill="#F69427" transform="translate(198,308)"/>
<path d="M0 0 C0.33 0 0.66 0 1 0 C3.29612756 14.59681093 3.29612756 14.59681093 3 22 C2.34 21.01 1.68 20.02 1 19 C0.67 19.66 0.34 20.32 0 21 C-0.66 21 -1.32 21 -2 21 C-1.85796663 18.62471849 -1.71148388 16.24984749 -1.5625 13.875 C-1.52318359 13.20984375 -1.48386719 12.5446875 -1.44335938 11.859375 C-1.187848 7.84981183 -0.73217587 3.95005804 0 0 Z " fill="#F4F0E3" transform="translate(324,258)"/>
<path d="M0 0 C2.475 0.495 2.475 0.495 5 1 C5.66 0.67 6.32 0.34 7 0 C7 3.96 7 7.92 7 12 C6.67 10.68 6.34 9.36 6 8 C5.01 8 4.02 8 3 8 C2.34 9.98 1.68 11.96 1 14 C0.67 14 0.34 14 0 14 C0 9.38 0 4.76 0 0 Z " fill="#F78B0F" transform="translate(313,296)"/>
<path d="M0 0 C3.65316671 1.24976756 4.78065836 1.67098753 7 5 C7 6.32 7 7.64 7 9 C4.3125 10.625 4.3125 10.625 1 12 C-1.875 11.1875 -1.875 11.1875 -4 10 C-4 8.02 -4 6.04 -4 4 C-2.68 3.67 -1.36 3.34 0 3 C-0.33 4.98 -0.66 6.96 -1 9 C-0.01 9 0.98 9 2 9 C2.33 8.01 2.66 7.02 3 6 C3.33 5.01 3.66 4.02 4 3 C2.35 2.67 0.7 2.34 -1 2 C-0.67 1.34 -0.34 0.68 0 0 Z " fill="#F89726" transform="translate(528,461)"/>
<path d="M0 0 C3.65316671 1.24976756 4.78065836 1.67098753 7 5 C7 6.32 7 7.64 7 9 C4.3125 10.625 4.3125 10.625 1 12 C-1.875 11.1875 -1.875 11.1875 -4 10 C-4 8.02 -4 6.04 -4 4 C-2.68 3.67 -1.36 3.34 0 3 C-0.33 4.98 -0.66 6.96 -1 9 C-0.01 9 0.98 9 2 9 C2.33 8.01 2.66 7.02 3 6 C3.33 5.01 3.66 4.02 4 3 C2.35 2.67 0.7 2.34 -1 2 C-0.67 1.34 -0.34 0.68 0 0 Z " fill="#F89726" transform="translate(208,461)"/>
<path d="M0 0 C0.33 0.99 0.66 1.98 1 3 C1.66 3 2.32 3 3 3 C5 6 5 6 4.625 8.1875 C4.41875 8.785625 4.2125 9.38375 4 10 C3.34 9.34 2.68 8.68 2 8 C1.71125 8.9075 1.4225 9.815 1.125 10.75 C-0.63316583 15.82914573 -0.63316583 15.82914573 -2 18 C-2.99 18.33 -3.98 18.66 -5 19 C-4.35561067 16.39546825 -3.7095496 13.7913709 -3.0625 11.1875 C-2.88009766 10.44951172 -2.69769531 9.71152344 -2.50976562 8.95117188 C-1.7577385 5.92939016 -0.98514427 2.95543282 0 0 Z " fill="#F3EEE5" transform="translate(502,402)"/>
<path d="M0 0 C0.33 0 0.66 0 1 0 C1 6.6 1 13.2 1 20 C-0.65 20.66 -2.3 21.32 -4 22 C-4.8304947 18.03208086 -5.29783331 14.89349993 -4 11 C-3.01 10.34 -2.02 9.68 -1 9 C-0.42006301 6.80545319 -0.42006301 6.80545319 -0.3125 4.375 C-0.24675781 3.55773437 -0.18101562 2.74046875 -0.11328125 1.8984375 C-0.07589844 1.27195312 -0.03851562 0.64546875 0 0 Z " fill="#F4EBDD" transform="translate(514,368)"/>
<path d="M0 0 C0.33 0 0.66 0 1 0 C1 1.65 1 3.3 1 5 C1.99 5 2.98 5 4 5 C4.33 7.31 4.66 9.62 5 12 C5.33 9.69 5.66 7.38 6 5 C6.33 5 6.66 5 7 5 C7.05389087 6.95803507 7.09274217 8.91648909 7.125 10.875 C7.14820313 11.96554687 7.17140625 13.05609375 7.1953125 14.1796875 C7 17 7 17 5 19 C3.68 16.36 2.36 13.72 1 11 C0.67 11 0.34 11 0 11 C0 7.37 0 3.74 0 0 Z " fill="#F6EEE1" transform="translate(321,283)"/>
<path d="M0 0 C3.65316671 1.24976756 4.78065836 1.67098753 7 5 C7 6.32 7 7.64 7 9 C4.3125 10.625 4.3125 10.625 1 12 C-1.875 11.1875 -1.875 11.1875 -4 10 C-4 8.02 -4 6.04 -4 4 C-2.68 3.67 -1.36 3.34 0 3 C-0.33 4.98 -0.66 6.96 -1 9 C-0.01 9 0.98 9 2 9 C2.33 8.01 2.66 7.02 3 6 C3.33 5.01 3.66 4.02 4 3 C2.35 2.67 0.7 2.34 -1 2 C-0.67 1.34 -0.34 0.68 0 0 Z " fill="#F89726" transform="translate(208,141)"/>
<path d="M0 0 C0.66 0.33 1.32 0.66 2 1 C0.98823563 4.40320742 0.35156418 5.75725331 -2.625 7.8125 C-3.40875 8.204375 -4.1925 8.59625 -5 9 C-4.67 9.66 -4.34 10.32 -4 11 C-9.75 10.125 -9.75 10.125 -12 9 C-12 8.34 -12 7.68 -12 7 C-11.21753906 6.57847656 -10.43507813 6.15695312 -9.62890625 5.72265625 C-8.61699219 5.17480469 -7.60507812 4.62695312 -6.5625 4.0625 C-5.55316406 3.51722656 -4.54382813 2.97195313 -3.50390625 2.41015625 C-1.13329507 1.22300532 -1.13329507 1.22300532 0 0 Z " fill="#F5ECDD" transform="translate(536,332)"/>
<path d="M0 0 C0.33 0 0.66 0 1 0 C1 7.59 1 15.18 1 23 C-0.32 23.33 -1.64 23.66 -3 24 C-2.67 23.34 -2.34 22.68 -2 22 C-1.95410661 20.05693343 -1.95410661 20.05693343 -2.12109375 17.8671875 C-2.16943359 17.06152344 -2.21777344 16.25585938 -2.26757812 15.42578125 C-2.35168945 14.16314453 -2.35168945 14.16314453 -2.4375 12.875 C-2.48970703 12.02550781 -2.54191406 11.17601562 -2.59570312 10.30078125 C-2.72551378 8.20020876 -2.8621174 6.10005809 -3 4 C-2.67 4 -2.34 4 -2 4 C-1.67 5.65 -1.34 7.3 -1 9 C-0.67 6.03 -0.34 3.06 0 0 Z " fill="#F69C33" transform="translate(381,372)"/>
<path d="M0 0 C0.66 0 1.32 0 2 0 C1.70368676 6.81520452 -1.30464197 11.38350782 -5 17 C-6 14 -6 14 -6 13 C-6.99 13 -7.98 13 -9 13 C-9.33 11.68 -9.66 10.36 -10 9 C-7.92446352 8.4465236 -6.15634036 8 -4 8 C-4 7.34 -4 6.68 -4 6 C-2.68 5.34 -1.36 4.68 0 4 C0 2.68 0 1.36 0 0 Z " fill="#F68C12" transform="translate(171,300)"/>
<path d="M0 0 C2.5 0.125 2.5 0.125 3.5 1.125 C3.625 4.125 3.625 4.125 3.5 7.125 C2.5 8.125 2.5 8.125 0 8.25 C-2.5 8.125 -2.5 8.125 -3.5 7.125 C-3.625 4.125 -3.625 4.125 -3.5 1.125 C-2.5 0.125 -2.5 0.125 0 0 Z " fill="#F7931E" transform="translate(261.5,408.875)"/>
<path d="M0 0 C2.475 0.495 2.475 0.495 5 1 C3.68 1.33 2.36 1.66 1 2 C1 2.66 1 3.32 1 4 C2.32 4.33 3.64 4.66 5 5 C-4.24 5 -13.48 5 -23 5 C-23 4.67 -23 4.34 -23 4 C-21.92878906 3.93941406 -20.85757813 3.87882813 -19.75390625 3.81640625 C-18.35675609 3.73201463 -16.95962143 3.64736594 -15.5625 3.5625 C-14.50192383 3.50352539 -14.50192383 3.50352539 -13.41992188 3.44335938 C-9.91309581 3.52375562 -9.91309581 3.52375562 -7 2 C-4.66702567 1.95907063 -2.33294775 1.95758277 0 2 C0 1.34 0 0.68 0 0 Z " fill="#F4E8D6" transform="translate(247,240)"/>
<path d="M0 0 C1.2065625 0.0309375 1.2065625 0.0309375 2.4375 0.0625 C3.5625 2.375 3.5625 2.375 4.4375 5.0625 C3.4475 6.5475 3.4475 6.5475 2.4375 8.0625 C-2.4375 7.1875 -2.4375 7.1875 -3.5625 6.0625 C-3.6875 3.5625 -3.6875 3.5625 -3.5625 1.0625 C-2.5625 0.0625 -2.5625 0.0625 0 0 Z " fill="#F5F5F5" transform="translate(127.5625,222.9375)"/>
<path d="M0 0 C2.5625 0.1875 2.5625 0.1875 4.5625 2.1875 C4.1875 4.8125 4.1875 4.8125 3.5625 7.1875 C1.75 7.8125 1.75 7.8125 -0.4375 8.1875 C-1.4275 7.5275 -2.4175 6.8675 -3.4375 6.1875 C-3.6875 3.625 -3.6875 3.625 -3.4375 1.1875 C-2.4375 0.1875 -2.4375 0.1875 0 0 Z " fill="#F6931E" transform="translate(277.4375,72.8125)"/>
<path d="M0 0 C1.65 0 3.3 0 5 0 C5.33 0.66 5.66 1.32 6 2 C8.11846285 2.68729254 8.11846285 2.68729254 10.5625 3.125 C11.80193359 3.37636719 11.80193359 3.37636719 13.06640625 3.6328125 C13.70449219 3.75398437 14.34257812 3.87515625 15 4 C15.33 5.65 15.66 7.3 16 9 C10.18738629 7.26017005 5.16830006 5.1889511 0 2 C0 1.34 0 0.68 0 0 Z " fill="#F3F0E3" transform="translate(237,528)"/>
<path d="M0 0 C0.33 0 0.66 0 1 0 C1 9.24 1 18.48 1 28 C-0.32 27.34 -1.64 26.68 -3 26 C-3 22.7 -3 19.4 -3 16 C-2.34 17.32 -1.68 18.64 -1 20 C-0.67 13.4 -0.34 6.8 0 0 Z " fill="#F28509" transform="translate(286,360)"/>
<path d="M0 0 C0.66 0 1.32 0 2 0 C2 6.27 2 12.54 2 19 C0.68 19 -0.64 19 -2 19 C-2 16.03 -2 13.06 -2 10 C-1.01 10 -0.02 10 1 10 C0.67 6.7 0.34 3.4 0 0 Z " fill="#F3870C" transform="translate(294,375)"/>
<path d="M0 0 C0.66 0 1.32 0 2 0 C2.96205088 6.37358711 3.10655578 12.55929529 3 19 C2.01 19 1.02 19 0 19 C0 12.73 0 6.46 0 0 Z " fill="#F4FCFB" transform="translate(337,261)"/>
<path d="M0 0 C-0.33 0.66 -0.66 1.32 -1 2 C-3.91691525 2.05401695 -6.83282724 2.09368066 -9.75 2.125 C-10.575 2.14175781 -11.4 2.15851563 -12.25 2.17578125 C-13.04921875 2.18222656 -13.8484375 2.18867188 -14.671875 2.1953125 C-15.4050293 2.20578613 -16.13818359 2.21625977 -16.89355469 2.22705078 C-19.29896076 1.96777544 -20.91251494 1.19225925 -23 0 C-15.13673606 -1.12332342 -7.86328177 -1.31054696 0 0 Z " fill="#F5FBFC" transform="translate(271,243)"/>
<path d="M0 0 C4.70588235 0.70588235 4.70588235 0.70588235 6 2 C6.125 4.5 6.125 4.5 6 7 C5 8 5 8 2.5 8.125 C0 8 0 8 -1 7 C-1.125 4 -1.125 4 -1 1 C-0.67 0.67 -0.34 0.34 0 0 Z " fill="#F7931E" transform="translate(259,89)"/>
<path d="M0 0 C1.65 0 3.3 0 5 0 C4.67 2.31 4.34 4.62 4 7 C3.01 7.33 2.02 7.66 1 8 C1 9.98 1 11.96 1 14 C0.01 13.67 -0.98 13.34 -2 13 C-1.34 13 -0.68 13 0 13 C-0.66 9.37 -1.32 5.74 -2 2 C-1.34 2 -0.68 2 0 2 C0 1.34 0 0.68 0 0 Z " fill="#F6F0E8" transform="translate(322,528)"/>
<path d="M0 0 C0.33 0 0.66 0 1 0 C1.33768172 3.06203674 1.66936893 6.12469458 2 9.1875 C2.09539062 10.05181641 2.19078125 10.91613281 2.2890625 11.80664062 C2.72690189 15.88792925 3.13621913 19.88788502 3 24 C2.01 23.67 1.02 23.34 0 23 C-0.1954384 20.10450497 -0.38161395 17.20891002 -0.5625 14.3125 C-0.61857422 13.49587891 -0.67464844 12.67925781 -0.73242188 11.83789062 C-0.98341571 7.70485877 -1.11127743 4.04175718 0 0 Z " fill="#F5F4EE" transform="translate(387,456)"/>
<path d="M0 0 C0.33 0 0.66 0 1 0 C1.33 4.62 1.66 9.24 2 14 C1.01 14.66 0.02 15.32 -1 16 C-1.66 15.67 -2.32 15.34 -3 15 C-2.22095672 4.44191344 -2.22095672 4.44191344 0 0 Z " fill="#F4F1E5" transform="translate(270,357)"/>
<path d="M0 0 C2.875 -0.125 2.875 -0.125 6 0 C6.66 0.66 7.32 1.32 8 2 C6.95902388 5.86648272 5.96301592 9.49461443 4 13 C2.53060547 8.69677317 1.22556737 4.37702633 0 0 Z " fill="#F5F7F2" transform="translate(472,277)"/>
<path d="M0 0 C4.75 0.875 4.75 0.875 7 2 C6.67 3.65 6.34 5.3 6 7 C3.625 7.625 3.625 7.625 1 8 C0.34 7.34 -0.32 6.68 -1 6 C-0.625 2.875 -0.625 2.875 0 0 Z " fill="#F5921B" transform="translate(432,92)"/>
<path d="M0 0 C1 1 1 1 1.0625 3.5625 C1.041875 4.366875 1.02125 5.17125 1 6 C-0.98 6.33 -2.96 6.66 -5 7 C-5.33 4.69 -5.66 2.38 -6 0 C-3.49749232 -1.25125384 -2.59701335 -0.83774624 0 0 Z " fill="#F8941E" transform="translate(434,560)"/>
<path d="M0 0 C3.9252025 3.70090521 6.94580156 7.54959656 10 12 C9.01 12.99 8.02 13.98 7 15 C6.67 14.34 6.34 13.68 6 13 C6.33 12.34 6.66 11.68 7 11 C6.34 11 5.68 11 5 11 C5 10.34 5 9.68 5 9 C3.68 9 2.36 9 1 9 C1 7.35 1 5.7 1 4 C0.34 3.67 -0.32 3.34 -1 3 C-0.67 2.01 -0.34 1.02 0 0 Z " fill="#F6F0E5" transform="translate(186,470)"/>
<path d="M0 0 C0.33 0 0.66 0 1 0 C1.33 10.56 1.66 21.12 2 32 C1.67 31.34 1.34 30.68 1 30 C0.34 30 -0.32 30 -1 30 C-1.33 30.66 -1.66 31.32 -2 32 C-1.93433838 31.41299316 -1.86867676 30.82598633 -1.80102539 30.22119141 C-1.09641946 23.60993024 -0.70796412 17.01688927 -0.4375 10.375 C-0.37272461 8.86873047 -0.37272461 8.86873047 -0.30664062 7.33203125 C-0.20190141 4.88811617 -0.09972744 2.44412383 0 0 Z " fill="#F79829" transform="translate(302,288)"/>
<path d="M0 0 C1.299375 0.2475 1.299375 0.2475 2.625 0.5 C2.295 1.16 1.965 1.82 1.625 2.5 C3.275 2.83 4.925 3.16 6.625 3.5 C3.66491334 5.47339111 2.88978554 5.73226556 -0.4375 5.9375 C-2.3865625 6.2159375 -2.3865625 6.2159375 -4.375 6.5 C-5.365 7.985 -5.365 7.985 -6.375 9.5 C-7.365 9.17 -8.355 8.84 -9.375 8.5 C-4.43845733 0.65754923 -4.43845733 0.65754923 0 0 Z " fill="#F4EFE5" transform="translate(185.375,249.5)"/>
<path d="M0 0 C1 1 1 1 1.0625 3.5625 C1.041875 4.366875 1.02125 5.17125 1 6 C-0.98 6.33 -2.96 6.66 -5 7 C-5.33 4.69 -5.66 2.38 -6 0 C-3.49749232 -1.25125384 -2.59701335 -0.83774624 0 0 Z " fill="#F8941E" transform="translate(434,240)"/>
<path d="M0 0 C0.99 0.33 1.98 0.66 3 1 C3.33 3.31 3.66 5.62 4 8 C1.6875 8.6875 1.6875 8.6875 -1 9 C-2.8125 7.6875 -2.8125 7.6875 -4 6 C-4 5.34 -4 4.68 -4 4 C-2.68 4 -1.36 4 0 4 C0 2.68 0 1.36 0 0 Z " fill="#F3F5F4" transform="translate(277,392)"/>
<path d="M0 0 C0.86963379 0.15847412 1.73926758 0.31694824 2.63525391 0.48022461 C5.73444262 0.95897753 8.70523819 1.19858423 11.8359375 1.31640625 C12.89941406 1.35830078 13.96289062 1.40019531 15.05859375 1.44335938 C16.15300781 1.48267578 17.24742187 1.52199219 18.375 1.5625 C20.05142578 1.62727539 20.05142578 1.62727539 21.76171875 1.69335938 C24.50770199 1.79897411 27.25376881 1.9010797 30 2 C30 2.33 30 2.66 30 3 C14.16 3.495 14.16 3.495 -2 4 C-1.34 2.68 -0.68 1.36 0 0 Z " fill="#F78809" transform="translate(278,147)"/>
<path d="M0 0 C1.99954746 -0.04254356 4.00041636 -0.04080783 6 0 C7 1 7 1 7.0625 3.5625 C7.041875 4.366875 7.02125 5.17125 7 6 C5.35 6.33 3.7 6.66 2 7 C1.67 6.01 1.34 5.02 1 4 C0.34 4 -0.32 4 -1 4 C-0.67 2.68 -0.34 1.36 0 0 Z " fill="#F5921B" transform="translate(258,560)"/>
<path d="M0 0 C1.484375 0.9765625 1.484375 0.9765625 3 3 C3.24585463 5.87415775 3.32743574 8.5098775 3.25 11.375 C3.24226563 12.50808594 3.24226563 12.50808594 3.234375 13.6640625 C3.17988411 17.56016145 2.93935852 21.19711311 2 25 C1.67 25 1.34 25 1 25 C1 18.73 1 12.46 1 6 C0.67 6 0.34 6 0 6 C0 4.02 0 2.04 0 0 Z " fill="#F88C13" transform="translate(371,415)"/>
<path d="M0 0 C3.09513885 3.09513885 3.16358473 6.30654771 3.25 10.5625 C3.27578125 11.32691406 3.3015625 12.09132813 3.328125 12.87890625 C3 15 3 15 0 18 C0 12.06 0 6.12 0 0 Z " fill="#F4F8F6" transform="translate(392,356)"/>
<path d="M0 0 C0.99 0.33 1.98 0.66 3 1 C3.08131463 2.43655854 3.13933559 3.8744483 3.1875 5.3125 C3.22230469 6.11300781 3.25710937 6.91351563 3.29296875 7.73828125 C3 10 3 10 1.6875 11.78125 C-0.81995612 13.59219053 -2.99920026 13.20005332 -6 13 C-6.33 13.99 -6.66 14.98 -7 16 C-8 15 -8 15 -8.0625 11.9375 C-8.041875 10.968125 -8.02125 9.99875 -8 9 C-7.67 9.66 -7.34 10.32 -7 11 C-2.65815798 10.81535634 -2.65815798 10.81535634 1 9 C1.14636054 5.63370749 1.07193479 3.21580438 0 0 Z " fill="#F89927" transform="translate(61,293)"/>
<path d="M0 0 C2 2 2 2 2.1875 4.5625 C2 7 2 7 1 8 C-0.66617115 8.04063832 -2.33388095 8.042721 -4 8 C-3.34 6.68 -2.68 5.36 -2 4 C-2.66 4 -3.32 4 -4 4 C-4 4.66 -4 5.32 -4 6 C-4.66 6 -5.32 6 -6 6 C-5.67 4.35 -5.34 2.7 -5 1 C-2.625 0.375 -2.625 0.375 0 0 Z " fill="#F5F7F8" transform="translate(154,198)"/>
<path d="M0 0 C3 1 3 1 4.25 3.25 C5.27435476 7.00596744 4.72121867 9.55756266 3 13 C2.34 13 1.68 13 1 13 C1.33 11.02 1.66 9.04 2 7 C0.68 7.33 -0.64 7.66 -2 8 C-1.34 5.36 -0.68 2.72 0 0 Z " fill="#F3EFE7" transform="translate(114,194)"/>
<path d="M0 0 C1.97749439 2.96624159 2.40230872 4.58462127 3 8 C3.33 8.99 3.66 9.98 4 11 C3.67 11.99 3.34 12.98 3 14 C2.01 14 1.02 14 0 14 C-1.86987216 10.26025568 -1.30641834 5.53209172 -0.5 1.5 C-0.335 1.005 -0.17 0.51 0 0 Z " fill="#F79320" transform="translate(387,381)"/>
<path d="M0 0 C0.99 0.33 1.98 0.66 3 1 C3 1.66 3 2.32 3 3 C3.99 3.33 4.98 3.66 6 4 C4.02 4.99 4.02 4.99 2 6 C2 6.66 2 7.32 2 8 C0.37373596 9.38232443 -1.2925002 10.71937515 -3 12 C-2.69106068 10.3743193 -2.3777305 8.74947252 -2.0625 7.125 C-1.88847656 6.22007812 -1.71445313 5.31515625 -1.53515625 4.3828125 C-1 2 -1 2 0 0 Z " fill="#F4EBDB" transform="translate(189,219)"/>
<path d="M0 0 C3.59391114 1.33488128 6.75490696 2.96022723 10 5 C8.25 8.875 8.25 8.875 6 10 C6 9.34 6 8.68 6 8 C4.68 7.34 3.36 6.68 2 6 C2.33 5.01 2.66 4.02 3 3 C2.34 3 1.68 3 1 3 C0.67 2.01 0.34 1.02 0 0 Z " fill="#F5F3E9" transform="translate(408,189)"/>
<path d="M0 0 C1.65 0 3.3 0 5 0 C5.33 1.98 5.66 3.96 6 6 C4.35 6.33 2.7 6.66 1 7 C-0.0625 4.625 -0.0625 4.625 -1 2 C-0.67 1.34 -0.34 0.68 0 0 Z " fill="#F5911A" transform="translate(432,413)"/>
<path d="M0 0 C1.65 0 3.3 0 5 0 C5.33 1.98 5.66 3.96 6 6 C4.35 6.33 2.7 6.66 1 7 C-0.0625 4.625 -0.0625 4.625 -1 2 C-0.67 1.34 -0.34 0.68 0 0 Z " fill="#F5911A" transform="translate(112,413)"/>
<path d="M0 0 C0.66 0 1.32 0 2 0 C2.33 5.61 2.66 11.22 3 17 C2.34 17 1.68 17 1 17 C-0.53266582 13.93466836 -0.10276471 10.73245728 -0.0625 7.375 C-0.05798828 6.66859375 -0.05347656 5.9621875 -0.04882812 5.234375 C-0.03703875 3.48954725 -0.01910324 1.744763 0 0 Z " fill="#F5ECE0" transform="translate(382,358)"/>
<path d="M0 0 C1.32593454 3.97780361 0.38321941 6.10639229 -0.96484375 9.96875 C-2 12 -2 12 -4.6875 13.5625 C-5.450625 13.706875 -6.21375 13.85125 -7 14 C-5.53967505 8.68972746 -3.01679014 4.53669968 0 0 Z " fill="#F3EEE0" transform="translate(173,304)"/>
<path d="M0 0 C1 3 1 3 0 6 C-3.4375 7.75 -3.4375 7.75 -7 9 C-7.66 8.67 -8.32 8.34 -9 8 C-8.3125 6.125 -8.3125 6.125 -7 4 C-4.5 2.875 -4.5 2.875 -2 2 C-1.34 1.34 -0.68 0.68 0 0 Z " fill="#ECEBE5" transform="translate(533,298)"/>
<path d="M0 0 C0 1.98 0 3.96 0 6 C-0.99 6 -1.98 6 -3 6 C-3.33 5.01 -3.66 4.02 -4 3 C-5.98 3.99 -5.98 3.99 -8 5 C-7.625 2.5625 -7.625 2.5625 -7 0 C-4.3333581 -1.33332095 -2.83319697 -0.67102033 0 0 Z " fill="#F79625" transform="translate(257,188)"/>
<path d="M0 0 C2.24707241 0.2198223 4.49771238 0.40483987 6.75 0.5625 C7.92046875 0.64628906 9.0909375 0.73007813 10.296875 0.81640625 C11.18890625 0.87699219 12.0809375 0.93757812 13 1 C13 1.33 13 1.66 13 2 C3.76 2 -5.48 2 -15 2 C-15 1.67 -15 1.34 -15 1 C-13.25215171 0.63536268 -11.50159498 0.2836922 -9.75 -0.0625 C-8.28820312 -0.35833984 -8.28820312 -0.35833984 -6.796875 -0.66015625 C-4.01417369 -0.99827778 -2.63776753 -0.75935732 0 0 Z " fill="#F4FCFD" transform="translate(299,177)"/>
<path d="M0 0 C-3.75 2 -3.75 2 -6 2 C-6.33 3.32 -6.66 4.64 -7 6 C-8.75 6.6875 -8.75 6.6875 -11 7 C-13.25 5.5625 -13.25 5.5625 -15 4 C-5.77448747 -0.59225513 -5.77448747 -0.59225513 0 0 Z " fill="#F4EFE5" transform="translate(259,158)"/>
<path d="M0 0 C1.32 0.33 2.64 0.66 4 1 C4 1.66 4 2.32 4 3 C4.99 3.33 5.98 3.66 7 4 C6.67 5.98 6.34 7.96 6 10 C2.65756352 8.10595266 2.02002851 7.05908409 0.75 3.3125 C0.5025 2.219375 0.255 1.12625 0 0 Z " fill="#ECEAE2" transform="translate(269,400)"/>
<path d="M0 0 C1.98 0.99 1.98 0.99 4 2 C4 4.31 4 6.62 4 9 C2.68 9 1.36 9 0 9 C0 6.03 0 3.06 0 0 Z " fill="#F48B13" transform="translate(283,386)"/>
<path d="M0 0 C0.33 0 0.66 0 1 0 C1.19397476 1.97854258 1.38001321 3.9578648 1.5625 5.9375 C1.66691406 7.03964844 1.77132813 8.14179688 1.87890625 9.27734375 C1.91886719 10.17582031 1.95882813 11.07429688 2 12 C1.67 12.33 1.34 12.66 1 13 C0.63239269 15.32817964 0.29758419 17.6618385 0 20 C-2.12936806 16.80594791 -2.23418211 16.50812339 -1.7578125 12.98828125 C-1.66113281 12.23095703 -1.56445312 11.47363281 -1.46484375 10.69335938 C-1.35269531 9.90767578 -1.24054688 9.12199219 -1.125 8.3125 C-1.02058594 7.51521484 -0.91617187 6.71792969 -0.80859375 5.89648438 C-0.54948177 3.92958889 -0.27610346 1.96458233 0 0 Z " fill="#F79B31" transform="translate(360,312)"/>
<path d="M0 0 C1.45792884 -0.05399736 2.91642712 -0.09279177 4.375 -0.125 C5.18710937 -0.14820313 5.99921875 -0.17140625 6.8359375 -0.1953125 C9 0 9 0 11 2 C5.39 2.99 -0.22 3.98 -6 5 C-6 4.34 -6 3.68 -6 3 C-4.02 2.34 -2.04 1.68 0 1 C0 0.67 0 0.34 0 0 Z " fill="#F59422" transform="translate(290,181)"/>
<path d="M0 0 C0.99 0 1.98 0 3 0 C3 5.28 3 10.56 3 16 C2.67 16 2.34 16 2 16 C1.67 14.35 1.34 12.7 1 11 C0.67 11 0.34 11 0 11 C0 7.37 0 3.74 0 0 Z " fill="#F68B0D" transform="translate(274,376)"/>
<path d="M0 0 C4.43458973 1.3937282 6.87378374 3.60582235 10 7 C6.64405503 6.4213888 5.35999139 5.35999139 3 3 C2.01 3 1.02 3 0 3 C-0.33 4.65 -0.66 6.3 -1 8 C-1.66 8 -2.32 8 -3 8 C-3.75 6.25 -3.75 6.25 -4 4 C-2.0625 1.75 -2.0625 1.75 0 0 Z " fill="#E78716" transform="translate(437,549)"/>
<path d="M0 0 C-0.33 0.66 -0.66 1.32 -1 2 C-1.66 2 -2.32 2 -3 2 C-3 2.99 -3 3.98 -3 5 C-2.34 5.33 -1.68 5.66 -1 6 C-1.99 6 -2.98 6 -4 6 C-4.33 5.34 -4.66 4.68 -5 4 C-8.63 4 -12.26 4 -16 4 C-16 3.67 -16 3.34 -16 3 C-14.27318563 2.49193553 -12.54342021 1.99389533 -10.8125 1.5 C-9.84957031 1.2215625 -8.88664062 0.943125 -7.89453125 0.65625 C-5.14654124 0.03322392 -2.80401584 -0.12302812 0 0 Z " fill="#F89827" transform="translate(389,544)"/>
<path d="M0 0 C5.4 0.6 5.4 0.6 7.875 2.25 C9.37422891 4.58213386 9.22023906 6.28371825 9 9 C7.87105124 8.06725891 6.74699124 7.12859878 5.625 6.1875 C4.99851563 5.66542969 4.37203125 5.14335937 3.7265625 4.60546875 C2 3 2 3 0 0 Z " fill="#F79729" transform="translate(196,482)"/>
<path d="M0 0 C0.99 0.33 1.98 0.66 3 1 C3.05384521 3.29141286 3.09272087 5.58318188 3.125 7.875 C3.14820313 9.15117187 3.17140625 10.42734375 3.1953125 11.7421875 C3 15 3 15 1 17 C0.67 11.39 0.34 5.78 0 0 Z " fill="#F79D35" transform="translate(277,417)"/>
<path d="M0 0 C0.33 0 0.66 0 1 0 C1.33 3.96 1.66 7.92 2 12 C1.67 11.01 1.34 10.02 1 9 C0.01 9 -0.98 9 -2 9 C-4.35723489 6.46815512 -5 5.52809907 -5 2 C-4.01 1.67 -3.02 1.34 -2 1 C-1.67 2.32 -1.34 3.64 -1 5 C-0.67 3.35 -0.34 1.7 0 0 Z " fill="#F8A23C" transform="translate(142,384)"/>
<path d="M0 0 C0.66 0.33 1.32 0.66 2 1 C2 2.65 2 4.3 2 6 C1.34 6 0.68 6 0 6 C0.20625 6.763125 0.4125 7.52625 0.625 8.3125 C1 11 1 11 -1 14 C-1.22142255 12.04310341 -1.4267568 10.08438048 -1.625 8.125 C-1.74101562 7.03445313 -1.85703125 5.94390625 -1.9765625 4.8203125 C-1.98429687 3.88960938 -1.99203125 2.95890625 -2 2 C-1.34 1.34 -0.68 0.68 0 0 Z " fill="#F5F2E7" transform="translate(269,384)"/>
<path d="M0 0 C0.33 0.66 0.66 1.32 1 2 C1.66 2 2.32 2 3 2 C3.08090971 3.62418745 3.13914995 5.24951745 3.1875 6.875 C3.22230469 7.77992188 3.25710938 8.68484375 3.29296875 9.6171875 C3.19628906 10.40351563 3.09960938 11.18984375 3 12 C2.01 12.66 1.02 13.32 0 14 C0 9.38 0 4.76 0 0 Z " fill="#F4FEFD" transform="translate(382,373)"/>
<path d="M0 0 C4.43458973 1.3937282 6.87378374 3.60582235 10 7 C6.64405503 6.4213888 5.35999139 5.35999139 3 3 C2.01 3 1.02 3 0 3 C-0.33 4.65 -0.66 6.3 -1 8 C-1.66 8 -2.32 8 -3 8 C-3.75 6.25 -3.75 6.25 -4 4 C-2.0625 1.75 -2.0625 1.75 0 0 Z " fill="#E78716" transform="translate(437,229)"/>
<path d="M0 0 C0.144375 0.598125 0.28875 1.19625 0.4375 1.8125 C0.8872439 3.56150404 1.42892341 5.28677023 2 7 C2.66 7.33 3.32 7.66 4 8 C-0.0333534 8 -1.83517538 6.39120082 -5 4 C-5 3.34 -5 2.68 -5 2 C-3.35 1.34 -1.7 0.68 0 0 Z " fill="#F3F1E6" transform="translate(220,512)"/>
<path d="M0 0 C0.66 0 1.32 0 2 0 C2 4.62 2 9.24 2 14 C1.01 14.495 1.01 14.495 0 15 C-1.2063366 9.77254141 -0.75612577 5.23471686 0 0 Z " fill="#F68A0B" transform="translate(506,341)"/>
<path d="M0 0 C2 3 2 3 2 7 C-0.64 7.33 -3.28 7.66 -6 8 C-5.67 5.69 -5.34 3.38 -5 1 C-3 3 -3 3 -3 6 C-2.01 6 -1.02 6 0 6 C-0.185625 5.38125 -0.37125 4.7625 -0.5625 4.125 C-1 2 -1 2 0 0 Z " fill="#F69625" transform="translate(516,330)"/>
<path d="M0 0 C0.33 0.66 0.66 1.32 1 2 C0.01 2.495 0.01 2.495 -1 3 C-1 4.32 -1 5.64 -1 7 C0.32 6.67 1.64 6.34 3 6 C3 5.34 3 4.68 3 4 C3.66 4.33 4.32 4.66 5 5 C4.67 5.99 4.34 6.98 4 8 C1.6875 8.6875 1.6875 8.6875 -1 9 C-2.875 7.8125 -2.875 7.8125 -4 6 C-3.875 3.9375 -3.875 3.9375 -3 2 C-2.01 1.34 -1.02 0.68 0 0 Z " fill="#EB8B18" transform="translate(380,147)"/>
<path d="M0 0 C3.15224178 3.42634976 3.75336704 6.39618477 4 11 C3.0625 13.4375 3.0625 13.4375 2 15 C0.2520497 9.75614911 -0.19392201 5.52677733 0 0 Z " fill="#F6EEE5" transform="translate(315,496)"/>
<path d="M0 0 C2.93200474 2.85276137 5.64315404 5.65079784 8 9 C7.67 9.66 7.34 10.32 7 11 C4.5625 10.25 4.5625 10.25 2 9 C1.25 7.1875 1.25 7.1875 1 5 C0.814375 4.0925 0.62875 3.185 0.4375 2.25 C0.293125 1.5075 0.14875 0.765 0 0 Z " fill="#F49A31" transform="translate(365,405)"/>
<path d="M0 0 C2.72426311 2.35277269 3.8141763 4.62496331 5 8 C4.01 8.33 3.02 8.66 2 9 C1.01 8.34 0.02 7.68 -1 7 C-0.67 4.69 -0.34 2.38 0 0 Z " fill="#F4F0E6" transform="translate(502,295)"/>
<path d="M0 0 C2 1 2 1 3 3 C2.67 3.66 2.34 4.32 2 5 C0.02 5 -1.96 5 -4 5 C-4.33 5.66 -4.66 6.32 -5 7 C-5.99 6.34 -6.98 5.68 -8 5 C-6.71475739 4.13619741 -5.42157581 3.28419631 -4.125 2.4375 C-3.04605469 1.72400391 -3.04605469 1.72400391 -1.9453125 0.99609375 C-1.30335938 0.66738281 -0.66140625 0.33867188 0 0 Z " fill="#F4EFE5" transform="translate(420,514)"/>
<path d="M0 0 C0.99 0.33 1.98 0.66 3 1 C2.34 1 1.68 1 1 1 C1 2.32 1 3.64 1 5 C2.32 5 3.64 5 5 5 C5.33 4.34 5.66 3.68 6 3 C5.67 4.32 5.34 5.64 5 7 C3.35 7.33 1.7 7.66 0 8 C-2 5 -2 5 -1.6875 2.875 C-1 1 -1 1 0 0 Z " fill="#E7E7E7" transform="translate(378,468)"/>
<path d="M0 0 C0.66 0.99 1.32 1.98 2 3 C0.68 5.64 -0.64 8.28 -2 11 C-2.33 10.01 -2.66 9.02 -3 8 C-2.67 7.34 -2.34 6.68 -2 6 C-3.32 6.33 -4.64 6.66 -6 7 C-4.02 4.69 -2.04 2.38 0 0 Z " fill="#F5F1E6" transform="translate(178,328)"/>
<path d="M0 0 C-0.99 0.495 -1.98 0.99 -3 1.5 C-6.14263566 3.58363237 -6.14263566 3.58363237 -6.3984375 6.046875 C-6.40485687 8.51269579 -6.40485687 8.51269579 -6 12 C-6.66 12 -7.32 12 -8 12 C-8.8250398 8.17481546 -9.32812083 5.79439779 -7.8125 2.125 C-6 0 -6 0 -3.9375 -0.875 C-2 -1 -2 -1 0 0 Z " fill="#FA9827" transform="translate(379,292)"/>
<path d="M0 0 C0.66 0 1.32 0 2 0 C3.83691257 3.78187881 4.15837626 5.94568308 3 10 C2.01 10 1.02 10 0 10 C0 6.7 0 3.4 0 0 Z " fill="#F2E8D6" transform="translate(352,256)"/>
<path d="M0 0 C0.33 0.66 0.66 1.32 1 2 C0.34 2 -0.32 2 -1 2 C-1 2.66 -1 3.32 -1 4 C0.32 4.33 1.64 4.66 3 5 C2.67 5.99 2.34 6.98 2 8 C-0.97 7.505 -0.97 7.505 -4 7 C-4.33 5.68 -4.66 4.36 -5 3 C-3.35 2.01 -1.7 1.02 0 0 Z " fill="#F69623" transform="translate(223,201)"/>
<path d="M0 0 C0 0.66 0 1.32 0 2 C-5.12583611 2.10251672 -9.94997778 2.03590199 -15 1 C-15 0.67 -15 0.34 -15 0 C-13.39796533 -0.36368892 -11.79325797 -0.71561952 -10.1875 -1.0625 C-9.29417969 -1.25972656 -8.40085937 -1.45695313 -7.48046875 -1.66015625 C-4.4617328 -2.07374685 -2.69048421 -1.34524211 0 0 Z " fill="#F5E8D7" transform="translate(370,539)"/>
<path d="M0 0 C0.66 0.33 1.32 0.66 2 1 C1.67 2.32 1.34 3.64 1 5 C0.34 5 -0.32 5 -1 5 C-2.66967972 5.6590841 -4.33607955 6.32650839 -6 7 C-7.32676508 7.35858516 -8.65835921 7.7018576 -10 8 C-6.97727468 4.74475735 -3.74281699 2.38179263 0 0 Z " fill="#F6EDDE" transform="translate(435,504)"/>
<path d="M0 0 C2 0 2 0 3.61328125 1.546875 C5.50656061 4.89611286 5.29359007 7.43075737 5.1875 11.25 C5.14689453 13.14492188 5.14689453 13.14492188 5.10546875 15.078125 C5.07066406 16.04234375 5.03585937 17.0065625 5 18 C4.67 18 4.34 18 4 18 C3.81824219 16.67935547 3.81824219 16.67935547 3.6328125 15.33203125 C3.46523438 14.17058594 3.29765625 13.00914062 3.125 11.8125 C2.96257812 10.66394531 2.80015625 9.51539063 2.6328125 8.33203125 C2.05939755 5.31275375 1.25240957 2.79424152 0 0 Z " fill="#F3F0E2" transform="translate(370,409)"/>
<path d="M0 0 C1.32 0.33 2.64 0.66 4 1 C4 2.98 4 4.96 4 7 C3.01 7 2.02 7 1 7 C0.67 7.99 0.34 8.98 0 10 C0 6.7 0 3.4 0 0 Z " fill="#EF9224" transform="translate(291,378)"/>
<path d="M0 0 C2.475 0.495 2.475 0.495 5 1 C5.061875 1.5775 5.12375 2.155 5.1875 2.75 C6.32027301 5.88690987 8.34197595 7.09167504 11 9 C10.01 9.33 9.02 9.66 8 10 C4.54563194 7.46209694 2.37902903 5.56854354 0 2 C0 1.34 0 0.68 0 0 Z " fill="#E1E1E1" transform="translate(128,214)"/>
<path d="M0 0 C0.66 0.33 1.32 0.66 2 1 C-0.75 5.875 -0.75 5.875 -3 7 C-5.35981813 6.06421005 -7.69631264 5.06652192 -10 4 C-10 3.67 -10 3.34 -10 3 C-7.69 3.33 -5.38 3.66 -3 4 C-3 3.34 -3 2.68 -3 2 C-2.01 1.34 -1.02 0.68 0 0 Z " fill="#F79B31" transform="translate(368,160)"/>
<path d="M0 0 C3 1 3 1 4.75 3.9375 C5.1625 4.948125 5.575 5.95875 6 7 C5.67 7.66 5.34 8.32 5 9 C3.0625 8.4375 3.0625 8.4375 1 7 C0.25 3.375 0.25 3.375 0 0 Z " fill="#F2F0E6" transform="translate(169,444)"/>
<path d="M0 0 C1.9451 2.91765 2.45276317 4.62537285 3 8 C1.02 8.66 -0.96 9.32 -3 10 C-3 7.69 -3 5.38 -3 3 C-2.01 4.485 -2.01 4.485 -1 6 C-0.67 4.02 -0.34 2.04 0 0 Z " fill="#F4EFE9" transform="translate(510,365)"/>
<path d="M0 0 C2.02350324 3.03525486 2.32124018 4.19426202 2.625 7.6875 C2.69976562 8.49574219 2.77453125 9.30398437 2.8515625 10.13671875 C2.92503906 11.05904297 2.92503906 11.05904297 3 12 C-1.76923077 6.46153846 -1.76923077 6.46153846 -2 3 C-1.34 2.01 -0.68 1.02 0 0 Z " fill="#E98E24" transform="translate(107,239)"/>
<path d="M0 0 C0.99 0.33 1.98 0.66 3 1 C3 1.66 3 2.32 3 3 C2.01 3.495 2.01 3.495 1 4 C0.34444881 6.52733235 0.34444881 6.52733235 0 9 C-1.32 9.33 -2.64 9.66 -4 10 C-2.66666667 6.66666667 -1.33333333 3.33333333 0 0 Z " fill="#F3F1E6" transform="translate(491,435)"/>
<path d="M0 0 C1.33332095 2.6666419 0.67102033 4.16680303 0 7 C-4.75 8.125 -4.75 8.125 -7 7 C-5.71034824 5.62437146 -4.37310707 4.29233607 -3 3 C-2.34 3 -1.68 3 -1 3 C-0.67 2.01 -0.34 1.02 0 0 Z " fill="#F4EBD9" transform="translate(186,320)"/>
<path d="M0 0 C2.28062828 3.42094242 2.21925007 4.68187222 2.125 8.6875 C2.10695313 9.68136719 2.08890625 10.67523438 2.0703125 11.69921875 C2.03550781 12.83810547 2.03550781 12.83810547 2 14 C1.01 13.34 0.02 12.68 -1 12 C-0.67 8.04 -0.34 4.08 0 0 Z " fill="#F6EEE2" transform="translate(304,274)"/>
<path d="M0 0 C0.33 0 0.66 0 1 0 C1 3.96 1 7.92 1 12 C-0.32 11.34 -1.64 10.68 -3 10 C-2.67 8.35 -2.34 6.7 -2 5 C-1.67 5 -1.34 5 -1 5 C-0.67 3.35 -0.34 1.7 0 0 Z " fill="#F6E2C8" transform="translate(129,270)"/>
<path d="M0 0 C0 0.99 0 1.98 0 3 C-3.3 3 -6.6 3 -10 3 C-4.28571429 -1.28571429 -4.28571429 -1.28571429 0 0 Z " fill="#F3F0E6" transform="translate(256,196)"/>
<path d="M0 0 C1.65 0 3.3 0 5 0 C5.33 0.66 5.66 1.32 6 2 C8.01669827 3.13350534 8.01669827 3.13350534 10 4 C9.67 4.66 9.34 5.32 9 6 C5.59687262 4.94124926 2.98646769 3.99097846 0 2 C0 1.34 0 0.68 0 0 Z " fill="#F4E8D7" transform="translate(237,528)"/>
<path d="M0 0 C0.99 0 1.98 0 3 0 C3 0.66 3 1.32 3 2 C3.99 2.33 4.98 2.66 6 3 C5.67 3.99 5.34 4.98 5 6 C4.34 6 3.68 6 3 6 C3 5.34 3 4.68 3 4 C2.01 4 1.02 4 0 4 C-0.33 4.99 -0.66 5.98 -1 7 C-0.67 4.69 -0.34 2.38 0 0 Z " fill="#F68C10" transform="translate(157,326)"/>
<path d="M0 0 C0.99 0.33 1.98 0.66 3 1 C3 5.62 3 10.24 3 15 C2.67 15 2.34 15 2 15 C1.66048381 13.43883181 1.32867456 11.87598662 1 10.3125 C0.814375 9.44238281 0.62875 8.57226562 0.4375 7.67578125 C0.01027953 5.06287036 -0.07616201 2.64186962 0 0 Z " fill="#F2F0E7" transform="translate(132,255)"/>
<path d="M0 0 C2.34058637 2.12780579 3.70700306 4.11562221 5 7 C2.92446352 7.5534764 1.15634036 8 -1 8 C-0.67 5.36 -0.34 2.72 0 0 Z " fill="#F5F0E3" transform="translate(181,463)"/>
<path d="M0 0 C2 3 2 3 2 7 C1.01 7 0.02 7 -1 7 C-1 8.65 -1 10.3 -1 12 C-1.99 11.67 -2.98 11.34 -4 11 C-3.71125 10.29875 -3.4225 9.5975 -3.125 8.875 C-1.97866412 5.94547497 -0.97374346 2.99078347 0 0 Z " fill="#EA8716" transform="translate(267,395)"/>
<path d="M0 0 C1.68426809 3.25530808 2.88786134 6.50470706 4 10 C3.01 10.33 2.02 10.66 1 11 C0.34 10.34 -0.32 9.68 -1 9 C-0.9765625 6.8359375 -0.9765625 6.8359375 -0.625 4.375 C-0.51414062 3.55773437 -0.40328125 2.74046875 -0.2890625 1.8984375 C-0.19367187 1.27195312 -0.09828125 0.64546875 0 0 Z " fill="#F49727" transform="translate(568,301)"/>
<path d="M0 0 C0.33 0 0.66 0 1 0 C1.05389087 1.95803507 1.09274217 3.91648909 1.125 5.875 C1.14820313 6.96554687 1.17140625 8.05609375 1.1953125 9.1796875 C1 12 1 12 -1 14 C-2 13 -2 13 -2.125 10.5 C-2 8 -2 8 -1 7 C-0.63239269 4.67182036 -0.29758419 2.3381615 0 0 Z " fill="#F4E8D7" transform="translate(327,288)"/>
<path d="M0 0 C0.66 0 1.32 0 2 0 C2.33 3.96 2.66 7.92 3 12 C0 9 0 9 -0.29296875 6.73828125 C-0.25816406 5.93777344 -0.22335937 5.13726562 -0.1875 4.3125 C-0.16042969 3.50425781 -0.13335937 2.69601562 -0.10546875 1.86328125 C-0.07066406 1.24839844 -0.03585937 0.63351562 0 0 Z " fill="#F3F0E7" transform="translate(337,261)"/>
<path d="M0 0 C0 0.66 0 1.32 0 2 C0.66 2.33 1.32 2.66 2 3 C2.625 5.0625 2.625 5.0625 3 7 C1.0625 6.25 1.0625 6.25 -1 5 C-1.75 2.875 -1.75 2.875 -2 1 C-3.32 0.67 -4.64 0.34 -6 0 C-2.25 -1.125 -2.25 -1.125 0 0 Z " fill="#EBEBEB" transform="translate(123,229)"/>
<path d="M0 0 C2 1 2 1 3 3 C-1.455 4.485 -1.455 4.485 -6 6 C-6 5.34 -6 4.68 -6 4 C-6.66 3.67 -7.32 3.34 -8 3 C-5.36 2.67 -2.72 2.34 0 2 C0 1.34 0 0.68 0 0 Z " fill="#F5F1E5" transform="translate(354,225)"/>
<path d="M0 0 C0.66 0 1.32 0 2 0 C2.25 2.3125 2.25 2.3125 2 5 C0.375 6.9375 0.375 6.9375 -2 8 C-5.25 7.1875 -5.25 7.1875 -8 6 C-5.3333581 4.66667905 -3.83319697 5.32897967 -1 6 C-0.67 4.02 -0.34 2.04 0 0 Z " fill="#E4E4E4" transform="translate(147,209)"/>
<path d="M0 0 C2.8992226 0.46761655 3.86675182 0.86675182 6 3 C5.01 3 4.02 3 3 3 C3 3.66 3 4.32 3 5 C3.66 5.33 4.32 5.66 5 6 C3.68 6.33 2.36 6.66 1 7 C1 5.35 1 3.7 1 2 C0.34 1.67 -0.32 1.34 -1 1 C-0.67 0.67 -0.34 0.34 0 0 Z " fill="#F78D13" transform="translate(256,186)"/>
<path d="M0 0 C2.6875 0.875 2.6875 0.875 5 2 C4.67 2.66 4.34 3.32 4 4 C1.525 3.01 1.525 3.01 -1 2 C-1.33 3.98 -1.66 5.96 -2 8 C-2.99 7.67 -3.98 7.34 -5 7 C-3.75023244 3.34683329 -3.32901247 2.21934164 0 0 Z " fill="#E58617" transform="translate(268,79)"/>
<path d="M0 0 C0.99 0 1.98 0 3 0 C3 0.99 3 1.98 3 3 C2.34 3 1.68 3 1 3 C1 7.62 1 12.24 1 17 C0.67 17 0.34 17 0 17 C0 11.39 0 5.78 0 0 Z " fill="#F49B2F" transform="translate(282,373)"/>
<path d="M0 0 C0.99 1.485 0.99 1.485 2 3 C2.53625 3.515625 3.0725 4.03125 3.625 4.5625 C5 6 5 6 5 8 C4.34 8 3.68 8 3 8 C2.67 8.99 2.34 9.98 2 11 C1.67 11 1.34 11 1 11 C0.67 7.37 0.34 3.74 0 0 Z " fill="#EB850F" transform="translate(301,362)"/>
<path d="M0 0 C1.32 0.33 2.64 0.66 4 1 C0.80009492 3.74277578 -2.00499382 5.6302836 -6 7 C-4.02 4.69 -2.04 2.38 0 0 Z " fill="#F4ECD9" transform="translate(186,289)"/>
<path d="M0 0 C0.66 0 1.32 0 2 0 C2.433125 1.11375 2.433125 1.11375 2.875 2.25 C3.82302644 4.56739797 4.84845911 6.77917115 6 9 C3.53199953 7.84826645 1.95216435 6.95216435 0 5 C-0.125 2.375 -0.125 2.375 0 0 Z " fill="#F89A2A" transform="translate(458,385)"/>
<path d="M0 0 C0.33 0 0.66 0 1 0 C1 1.65 1 3.3 1 5 C1.99 5.33 2.98 5.66 4 6 C4.66 5.34 5.32 4.68 6 4 C6.33 5.98 6.66 7.96 7 10 C4.72970466 9.60856977 3.16591802 9.11258722 1.25 7.8125 C-0.54267046 5.21312784 -0.20510719 3.07660784 0 0 Z " fill="#EADCCA" transform="translate(277,386)"/>
<path d="M0 0 C0.66 0.33 1.32 0.66 2 1 C0.8572081 2.16964602 -0.28931715 3.33564556 -1.4375 4.5 C-2.07558594 5.1496875 -2.71367187 5.799375 -3.37109375 6.46875 C-5 8 -5 8 -6 8 C-6 6.02 -6 4.04 -6 2 C-4.68 2 -3.36 2 -2 2 C-1.34 1.34 -0.68 0.68 0 0 Z " fill="#F6880B" transform="translate(159,344)"/>
<path d="M0 0 C0.2475 0.598125 0.495 1.19625 0.75 1.8125 C2.16444091 4.28777159 3.72860188 5.33430804 6 7 C6 7.66 6 8.32 6 9 C2.63820226 7.55922954 0.40843732 5.75249979 -2 3 C-2 2.34 -2 1.68 -2 1 C-1.34 0.67 -0.68 0.34 0 0 Z " fill="#E3E3E3" transform="translate(135,212)"/>
<path d="M0 0 C-1 2 -1 2 -3.8125 3.125 C-7 4 -7 4 -11 4 C-11 3.34 -11 2.68 -11 2 C-7.17679443 0.57741188 -4.08718695 -0.24042276 0 0 Z " fill="#F48C12" transform="translate(404,589)"/>
<path d="M0 0 C0 0.99 0 1.98 0 3 C-4.43076923 5.09230769 -4.43076923 5.09230769 -7.3125 4.625 C-7.869375 4.41875 -8.42625 4.2125 -9 4 C-2.25 0 -2.25 0 0 0 Z " fill="#F1EAD9" transform="translate(412,520)"/>
<path d="M0 0 C0.93065133 2.60582371 1.14917407 3.64198224 0.0625 6.25 C-0.4634375 7.11625 -0.4634375 7.11625 -1 8 C-1.99 7.67 -2.98 7.34 -4 7 C-3.34 5.35 -2.68 3.7 -2 2 C-1.34 2 -0.68 2 0 2 C0 1.34 0 0.68 0 0 Z " fill="#EF8C15" transform="translate(576,411)"/>
<path d="M0 0 C0.33 0 0.66 0 1 0 C1 2.31 1 4.62 1 7 C0.01 7 -0.98 7 -2 7 C-2.33 8.32 -2.66 9.64 -3 11 C-4 8 -4 8 -3.22265625 5.95703125 C-2.83980469 5.24933594 -2.45695313 4.54164063 -2.0625 3.8125 C-1.68222656 3.09707031 -1.30195313 2.38164062 -0.91015625 1.64453125 C-0.60980469 1.10183594 -0.30945313 0.55914062 0 0 Z " fill="#F5EEE1" transform="translate(161,283)"/>
<path d="M0 0 C4.75207471 -0.43200679 7.78210698 1.01510917 12 3 C12 3.33 12 3.66 12 4 C3.42857143 3.14285714 3.42857143 3.14285714 0 1 C0 0.67 0 0.34 0 0 Z " fill="#F38B13" transform="translate(236,589)"/>
<path d="M0 0 C0 2.66666667 0 5.33333333 0 8 C-1.65 7.67 -3.3 7.34 -5 7 C-3.35 4.69 -1.7 2.38 0 0 Z " fill="#F49829" transform="translate(478,479)"/>
<path d="M0 0 C0.5534764 2.07553648 1 3.84365964 1 6 C-0.98 6.99 -0.98 6.99 -3 8 C-3.66 7.34 -4.32 6.68 -5 6 C-3.35 4.02 -1.7 2.04 0 0 Z " fill="#F5EBDB" transform="translate(469,471)"/>
<path d="M0 0 C0.33 0 0.66 0 1 0 C1.33 3.96 1.66 7.92 2 12 C1.01 11.67 0.02 11.34 -1 11 C-0.67 7.37 -0.34 3.74 0 0 Z " fill="#F3E9D6" transform="translate(387,456)"/>
<path d="M0 0 C1.98 0.99 1.98 0.99 4 2 C4 2.66 4 3.32 4 4 C4.66 4 5.32 4 6 4 C6 4.66 6 5.32 6 6 C5.34 6 4.68 6 4 6 C3.67 6.99 3.34 7.98 3 9 C1.76078698 6.02588876 0.69941596 3.14737182 0 0 Z " fill="#F99829" transform="translate(136,391)"/>
<path d="M0 0 C-2.71182212 2.60334924 -3.89133813 2.99456691 -7.75 3.1875 C-8.8225 3.125625 -9.895 3.06375 -11 3 C-11 2.34 -11 1.68 -11 1 C-7.27569643 0.30710631 -3.78916254 -0.11144596 0 0 Z " fill="#F78C0E" transform="translate(543,343)"/>
<path d="M0 0 C0.33 0 0.66 0 1 0 C1.33 3.96 1.66 7.92 2 12 C0.68 10.68 -0.64 9.36 -2 8 C-1.9355877 5.05850486 -0.94310882 2.82932647 0 0 Z " fill="#F8972C" transform="translate(477,296)"/>
<path d="M0 0 C1.5625 1.6875 1.5625 1.6875 3 4 C2.8125 6.6875 2.8125 6.6875 2 9 C1.01 9.495 1.01 9.495 0 10 C0.33 7.69 0.66 5.38 1 3 C0.34 3 -0.32 3 -1 3 C-0.67 2.01 -0.34 1.02 0 0 Z " fill="#F48F16" transform="translate(167,295)"/>
<path d="M0 0 C1 2 1 2 0.0625 5.125 C-0.288125 6.07375 -0.63875 7.0225 -1 8 C-1.99 8 -2.98 8 -4 8 C-3.40072174 4.64404172 -2.15377564 2.62198774 0 0 Z " fill="#F4EDDE" transform="translate(554,281)"/>
<path d="M0 0 C1.65 1.65 3.3 3.3 5 5 C2.69 5 0.38 5 -2 5 C-2.33 4.01 -2.66 3.02 -3 2 C-2.01 1.34 -1.02 0.68 0 0 Z " fill="#F28B14" transform="translate(270,406)"/>
<path d="M0 0 C0.33 0.99 0.66 1.98 1 3 C1.66 3.33 2.32 3.66 3 4 C2.34 5.32 1.68 6.64 1 8 C-0.32 6.68 -1.64 5.36 -3 4 C-2.67 3.01 -2.34 2.02 -2 1 C-2 1.66 -2 2.32 -2 3 C-1.34 3 -0.68 3 0 3 C0 2.01 0 1.02 0 0 Z " fill="#F69728" transform="translate(158,281)"/>
<path d="M0 0 C0.33 0.66 0.66 1.32 1 2 C1.66 2.33 2.32 2.66 3 3 C2.01 3 1.02 3 0 3 C-0.2165625 3.928125 -0.2165625 3.928125 -0.4375 4.875 C-1 7 -1 7 -2 9 C-2.66 9 -3.32 9 -4 9 C-2.94124926 5.59687262 -1.99097846 2.98646769 0 0 Z " fill="#F3EAD7" transform="translate(166,274)"/>
<path d="M0 0 C1.98 0 3.96 0 6 0 C4.79618552 2.49361571 3.54571278 4.68143083 2 7 C1.34 4.69 0.68 2.38 0 0 Z " fill="#F5E4CA" transform="translate(472,277)"/>
<path d="M0 0 C1.98 0 3.96 0 6 0 C6 2 6 4 6 6 C5.34 6 4.68 6 4 6 C2.61061923 4.03852126 1.2739589 2.03833424 0 0 Z " fill="#F99A2A" transform="translate(258,247)"/>
<path d="M0 0 C0 0.66 0 1.32 0 2 C-6.45 4.23269231 -6.45 4.23269231 -9.234375 3.0546875 C-9.81703125 2.70664063 -10.3996875 2.35859375 -11 2 C-9.5422647 1.664061 -8.08378894 1.33133376 -6.625 1 C-5.40683594 0.7215625 -5.40683594 0.7215625 -4.1640625 0.4375 C-2 0 -2 0 0 0 Z " fill="#F49826" transform="translate(335,235)"/>
<path d="M0 0 C1.125 3.75 1.125 3.75 0 6 C-1.65 6 -3.3 6 -5 6 C-3.35 4.02 -1.7 2.04 0 0 Z " fill="#F7F7F7" transform="translate(146,209)"/>
<path d="M0 0 C-0.99 0.66 -1.98 1.32 -3 2 C-3.66 2.66 -4.32 3.32 -5 4 C-7.475 3.01 -7.475 3.01 -10 2 C-6.19832777 -0.53444815 -4.31588991 -1.33941411 0 0 Z " fill="#F5EAD9" transform="translate(268,155)"/>
<path d="M0 0 C0.556875 0.474375 1.11375 0.94875 1.6875 1.4375 C4.18346074 3.12395996 6.0446237 3.58953107 9 4 C9 4.33 9 4.66 9 5 C5.7 5 2.4 5 -1 5 C-0.67 3.35 -0.34 1.7 0 0 Z " fill="#F79D3A" transform="translate(343,536)"/>
<path d="M0 0 C0.66 0.33 1.32 0.66 2 1 C1.1875 2.9375 1.1875 2.9375 0 5 C-0.99 5.33 -1.98 5.66 -3 6 C-2.625 3.5625 -2.625 3.5625 -2 1 C-1.34 0.67 -0.68 0.34 0 0 Z " fill="#F69420" transform="translate(471,518)"/>
<path d="M0 0 C0.66 0.33 1.32 0.66 2 1 C1.1875 2.9375 1.1875 2.9375 0 5 C-0.99 5.33 -1.98 5.66 -3 6 C-2.625 3.5625 -2.625 3.5625 -2 1 C-1.34 0.67 -0.68 0.34 0 0 Z " fill="#F69420" transform="translate(151,518)"/>
<path d="M0 0 C1.32 1.65 2.64 3.3 4 5 C3.01 5.99 2.02 6.98 1 8 C-0.42944945 5.64561267 -1.08661261 4.51967567 -0.625 1.75 C-0.41875 1.1725 -0.2125 0.595 0 0 Z " fill="#F69629" transform="translate(169,434)"/>
<path d="M0 0 C0.66 0 1.32 0 2 0 C3.0625 1.8125 3.0625 1.8125 4 4 C3.67 4.99 3.34 5.98 3 7 C1.35 5.35 -0.3 3.7 -2 2 C-1.34 2 -0.68 2 0 2 C0 1.34 0 0.68 0 0 Z " fill="#F5EBDD" transform="translate(499,332)"/>
<path d="M0 0 C0.33 0 0.66 0 1 0 C1.33 3.3 1.66 6.6 2 10 C1.01 10 0.02 10 -1 10 C-0.67 6.7 -0.34 3.4 0 0 Z " fill="#F5E9D6" transform="translate(324,258)"/>
<path d="M0 0 C-0.33 1.32 -0.66 2.64 -1 4 C-2.65 4.33 -4.3 4.66 -6 5 C-6.33 4.01 -6.66 3.02 -7 2 C-2.25 0 -2.25 0 0 0 Z " fill="#F69829" transform="translate(203,248)"/>
<path d="M0 0 C0.99 0.33 1.98 0.66 3 1 C1.3813036 4.23739279 -1.84489543 5.42244771 -5 7 C-4.6189482 4.23737447 -4.16402868 3.15856106 -2.125 1.1875 C-1.42375 0.795625 -0.7225 0.40375 0 0 Z " fill="#F78D14" transform="translate(195,222)"/>
<path d="M0 0 C0.33 0 0.66 0 1 0 C0.67 3.63 0.34 7.26 0 11 C-0.33 11 -0.66 11 -1 11 C-2.23076923 4.6 -2.23076923 4.6 -1.0625 1.5625 C-0.711875 1.046875 -0.36125 0.53125 0 0 Z " fill="#F98A0D" transform="translate(108,210)"/>
<path d="M0 0 C1.32 0 2.64 0 4 0 C3.1875 1.9375 3.1875 1.9375 2 4 C1.01 4.33 0.02 4.66 -1 5 C-0.67 3.35 -0.34 1.7 0 0 Z " fill="#F6F6F6" transform="translate(141,207)"/>
<path d="M0 0 C0.66 0.33 1.32 0.66 2 1 C1.1875 2.9375 1.1875 2.9375 0 5 C-0.99 5.33 -1.98 5.66 -3 6 C-2.625 3.5625 -2.625 3.5625 -2 1 C-1.34 0.67 -0.68 0.34 0 0 Z " fill="#F69420" transform="translate(471,198)"/>
<path d="M0 0 C0 0.66 0 1.32 0 2 C0.66 2.33 1.32 2.66 2 3 C-0.60582371 3.93065133 -1.64198224 4.14917407 -4.25 3.0625 C-4.8275 2.711875 -5.405 2.36125 -6 2 C-2.25 0 -2.25 0 0 0 Z M2 1 C4 2 4 2 4 2 Z " fill="#F89827" transform="translate(244,191)"/>
<path d="M0 0 C0.33 0.66 0.66 1.32 1 2 C2.65 2 4.3 2 6 2 C5.01 2.99 4.02 3.98 3 5 C-0.875 3.25 -0.875 3.25 -2 1 C-1.34 0.67 -0.68 0.34 0 0 Z " fill="#F6F0E7" transform="translate(233,169)"/>
<path d="M0 0 C2.31 0.33 4.62 0.66 7 1 C5.68 1.33 4.36 1.66 3 2 C3.33 2.99 3.66 3.98 4 5 C2.35 4.67 0.7 4.34 -1 4 C-0.67 2.68 -0.34 1.36 0 0 Z " fill="#F4EBDC" transform="translate(325,153)"/>
<path d="M0 0 C-1.32 1.32 -2.64 2.64 -4 4 C-6.475 3.01 -6.475 3.01 -9 2 C-5.86501708 0.14223235 -3.62528568 -0.20140476 0 0 Z " fill="#F4ECDC" transform="translate(277,152)"/>
<path d="M0 0 C0 0.66 0 1.32 0 2 C-2.375 2.625 -2.375 2.625 -5 3 C-5.66 2.34 -6.32 1.68 -7 1 C-3.375 -1.125 -3.375 -1.125 0 0 Z " fill="#F79930" transform="translate(419,532)"/>
<path d="M0 0 C2 3 2 3 3 6 C1.35 5.67 -0.3 5.34 -2 5 C-2 4.01 -2 3.02 -2 2 C-1.34 2 -0.68 2 0 2 C0 1.34 0 0.68 0 0 Z " fill="#F5972C" transform="translate(278,528)"/>
<path d="M0 0 C-0.8125 1.9375 -0.8125 1.9375 -2 4 C-2.99 4.33 -3.98 4.66 -5 5 C-5.33 4.34 -5.66 3.68 -6 3 C-3.375 0 -3.375 0 0 0 Z " fill="#F8951F" transform="translate(145,527)"/>
<path d="M0 0 C0.66 0 1.32 0 2 0 C2 2.64 2 5.28 2 8 C1.01 7.67 0.02 7.34 -1 7 C-0.67 4.69 -0.34 2.38 0 0 Z " fill="#F5FBFD" transform="translate(341,400)"/>
<path d="M0 0 C2.1387261 3.20808915 2.47730962 4.27698497 2 8 C1.01 8.66 0.02 9.32 -1 10 C-0.67 6.7 -0.34 3.4 0 0 Z " fill="#F6EFE4" transform="translate(505,386)"/>
<path d="M0 0 C1.485 0.99 1.485 0.99 3 2 C2.67 3.65 2.34 5.3 2 7 C1.01 7 0.02 7 -1 7 C-0.67 4.69 -0.34 2.38 0 0 Z " fill="#F6992C" transform="translate(154,365)"/>
<path d="M0 0 C0.66 0.33 1.32 0.66 2 1 C0.02 3.31 -1.96 5.62 -4 8 C-4.33 7.01 -4.66 6.02 -5 5 C-3.35 3.35 -1.7 1.7 0 0 Z " fill="#F78A11" transform="translate(352,343)"/>
<path d="M0 0 C0.66 0.33 1.32 0.66 2 1 C1.40072174 4.35595828 0.15377564 6.37801226 -2 9 C-2 6.36 -2 3.72 -2 1 C-1.34 0.67 -0.68 0.34 0 0 Z " fill="#F78F12" transform="translate(156,335)"/>
<path d="M0 0 C0.66 0.33 1.32 0.66 2 1 C1.01 3.97 0.02 6.94 -1 10 C-1.33 10 -1.66 10 -2 10 C-1.125 2.25 -1.125 2.25 0 0 Z " fill="#F68B13" transform="translate(64,254)"/>
<path d="M0 0 C0.66 0 1.32 0 2 0 C1.25 5.75 1.25 5.75 -1 8 C-1.33 6.02 -1.66 4.04 -2 2 C-1.34 2 -0.68 2 0 2 C0 1.34 0 0.68 0 0 Z " fill="#F58D12" transform="translate(110,200)"/>
<path d="M0 0 C2.91517292 1.07401108 4.77810176 1.77810176 7 4 C6.01 4.99 5.02 5.98 4 7 C3.34 6.67 2.68 6.34 2 6 C2.33 5.01 2.66 4.02 3 3 C2.34 3 1.68 3 1 3 C0.67 2.01 0.34 1.02 0 0 Z " fill="#F3EDDB" transform="translate(408,189)"/>
<path d="M0 0 C0.33 0 0.66 0 1 0 C1 1.65 1 3.3 1 5 C-0.98 5.66 -2.96 6.32 -5 7 C-4.19152271 5.83054208 -3.37810888 4.66449539 -2.5625 3.5 C-2.11003906 2.8503125 -1.65757813 2.200625 -1.19140625 1.53125 C-0.79824219 1.0259375 -0.40507813 0.520625 0 0 Z " fill="#F4962B" transform="translate(114,162)"/>
</svg>
